<svg width="24" height="24" viewBox="0 0 24 24" fill="none" xmlns="http://www.w3.org/2000/svg">
<g id="Arrow Down/left">
<path id="Vector" d="M3.68139 7.02754C3.58592 6.93732 3.47361 6.86679 3.35088 6.81998C3.22815 6.77316 3.09741 6.75098 2.9661 6.75469C2.8348 6.75841 2.70552 6.78795 2.58563 6.84162C2.46575 6.8953 2.35761 6.97207 2.26739 7.06754C2.17717 7.16301 2.10664 7.27532 2.05983 7.39805C2.01301 7.52077 1.99083 7.65152 1.99454 7.78282C1.99825 7.91413 2.02779 8.04341 2.08147 8.1633C2.13515 8.28318 2.21192 8.39132 2.30739 8.48154L11.3074 16.9815C11.4931 17.1571 11.7389 17.2549 11.9944 17.2549C12.2499 17.2549 12.4957 17.1571 12.6814 16.9815L21.6824 8.48154C21.78 8.39192 21.8587 8.2838 21.9142 8.16348C21.9696 8.04315 22.0005 7.91301 22.0052 7.78061C22.01 7.64822 21.9883 7.51621 21.9416 7.39225C21.8948 7.2683 21.8239 7.15486 21.7329 7.05854C21.642 6.96222 21.5328 6.88493 21.4117 6.83117C21.2907 6.7774 21.1601 6.74823 21.0277 6.74534C20.8952 6.74246 20.7635 6.76592 20.6402 6.81436C20.5169 6.86281 20.4045 6.93527 20.3094 7.02754L11.9944 14.8795L3.68139 7.02754Z" fill="black"/>
</g>
</svg>
