<svg width="32" height="25" viewBox="0 0 32 25" fill="none" xmlns="http://www.w3.org/2000/svg">
<path d="M30.9604 21.7845C30.9598 21.8583 30.8672 22.235 30.8114 22.4026C30.3187 23.8827 28.7272 24.7588 27.1304 24.4316C25.5141 24.1005 24.4776 22.6846 24.6771 21.0809C24.8599 19.6097 26.2632 18.477 27.8653 18.5069C29.3695 18.5351 30.6244 19.5466 30.904 20.9528C30.9146 21.0059 30.9598 21.2384 30.9604 21.4008V21.5705V21.7845Z" stroke="white"/>
<path d="M15.065 14.2211C17.6495 17.5702 20.2246 20.9073 22.8233 24.2755C22.894 24.3669 22.8263 24.4978 22.707 24.4978C22.7064 24.4978 22.7052 24.4978 22.7046 24.4978C20.4935 24.4984 18.2817 24.5012 16.0705 24.491C15.9483 24.491 15.7821 24.4171 15.7108 24.3257C12.8906 20.6862 10.0787 17.041 7.26626 13.3964C7.24786 13.3727 7.23005 13.3485 7.21105 13.3214C7.16713 13.2593 7.18256 13.1759 7.24548 13.1307C7.62717 12.8572 8.00232 12.5824 8.38579 12.3196C9.7665 11.3713 11.0754 10.3526 12.1302 9.06418C14.1229 6.62955 15.1422 3.86719 15.2389 0.790618C15.2407 0.738721 15.2443 0.687388 15.2484 0.633235C15.2543 0.559903 15.3185 0.50293 15.3962 0.50293H20.7671C20.8502 0.50293 20.9173 0.5678 20.9155 0.64621C20.8116 5.8308 18.8789 10.2804 15.078 14.0406C15.0282 14.0897 15.0228 14.1658 15.065 14.2211Z" stroke="white"/>
<path d="M6.26534 0.5H0.792338C0.710707 0.5 0.644531 0.562886 0.644531 0.640459V24.3347C0.644531 24.4122 0.710707 24.4751 0.792338 24.4751H6.26534C6.34697 24.4751 6.41314 24.4122 6.41314 24.3347V0.640459C6.41314 0.562886 6.34697 0.5 6.26534 0.5Z" stroke="white"/>
</svg>
