<svg width="26" height="25" viewBox="0 0 26 25" fill="none" xmlns="http://www.w3.org/2000/svg">
<path d="M19.3557 0.5H7.35571C4.042 0.5 1.35571 3.18629 1.35571 6.5V18.5C1.35571 21.8137 4.042 24.5 7.35571 24.5H19.3557C22.6694 24.5 25.3557 21.8137 25.3557 18.5V6.5C25.3557 3.18629 22.6694 0.5 19.3557 0.5Z" stroke="white" stroke-linecap="round" stroke-linejoin="round"/>
<path d="M18.1558 11.7441C18.3038 12.7428 18.1333 13.7628 17.6683 14.6589C17.2033 15.5551 16.4675 16.2818 15.5657 16.7357C14.6639 17.1896 13.6419 17.3476 12.6451 17.1872C11.6483 17.0268 10.7275 16.5562 10.0136 15.8423C9.29965 15.1284 8.82903 14.2076 8.66863 13.2108C8.50824 12.214 8.66623 11.192 9.12014 10.2902C9.57406 9.38834 10.3008 8.65261 11.1969 8.18761C12.0931 7.72261 13.1131 7.55202 14.1118 7.70012C15.1305 7.85118 16.0736 8.32587 16.8018 9.05409C17.53 9.7823 18.0047 10.7254 18.1558 11.7441Z" stroke="white" stroke-linecap="round" stroke-linejoin="round"/>
<path d="M19.9558 5.8999H19.9679" stroke="black" stroke-linecap="round" stroke-linejoin="round"/>
</svg>
