<svg width="98" height="84" viewBox="0 0 98 84" fill="none" xmlns="http://www.w3.org/2000/svg">
<path d="M20.414 58.2224C20.5868 59.2443 20.7498 60.2285 20.9204 61.2116C21.0171 61.7676 21.1345 62.3215 21.2291 62.8774C21.2736 63.135 21.128 63.3057 20.9074 63.4261C20.6118 63.3654 20.4499 63.1601 20.376 62.9277C19.9717 61.6671 18.9708 61.041 17.7645 60.664C16.5311 60.2787 15.2531 60.1081 13.962 59.9793C11.3256 59.7165 8.68372 59.8275 6.04511 59.7688C5.00944 59.7458 3.96835 59.6285 2.94572 59.4631C2.39692 59.3752 1.84268 59.1595 1.36126 58.8862C0.533158 58.4161 0.106069 57.6696 0.0213034 56.7325C-0.0993249 55.3818 0.306029 54.1495 0.890696 52.9538C1.82312 51.0472 3.12178 49.3908 4.60626 47.8527C5.71148 46.7083 6.89711 45.6508 8.17295 44.6928C9.96064 43.3505 11.8635 42.1757 13.8892 41.1863C15.8964 40.2063 17.971 39.398 20.1423 38.8179C21.5605 38.4389 22.9961 38.1185 24.4567 37.9971C25.9249 37.8746 27.4126 37.8212 28.883 37.8934C30.6978 37.9835 32.4594 38.3813 34.0037 39.3865C35.1589 40.1382 36.0055 41.134 36.1815 42.4888C36.3467 43.7557 36.1826 45.0069 35.6175 46.2005C34.9046 47.7072 33.8744 48.9866 32.6898 50.1603C32.0182 50.8262 31.3042 51.4534 30.5968 52.0848C29.0612 53.4574 27.3268 54.5735 25.5554 55.6373C23.9329 56.6121 22.2495 57.479 20.4107 58.2203L20.414 58.2224ZM19.8076 58.4967C19.5153 58.5899 19.2968 58.6705 19.0719 58.7281C18.6383 58.8391 18.2068 58.9762 17.7645 59.0296C17.3092 59.0841 16.9929 58.8558 16.894 58.5093C16.7984 58.1763 16.9288 57.9292 17.4092 57.7366C18.0069 57.4968 18.6307 57.3146 19.2403 57.1042C19.3609 57.0623 19.4729 56.9995 19.5913 56.945C19.5479 56.7922 19.5077 56.6843 19.4881 56.5744C19.3207 55.609 19.1545 54.6447 18.9936 53.6783C18.9099 53.1758 18.8241 52.6732 18.7741 52.1675C18.7622 52.046 18.8578 51.845 18.9589 51.8021C19.0512 51.7633 19.2838 51.8523 19.3414 51.9476C19.5109 52.2324 19.7522 52.5046 19.7141 52.8784C19.5979 52.8711 19.5055 52.8658 19.3979 52.8595C19.6544 54.1955 19.9076 55.5179 20.176 56.9189C20.7954 56.7513 21.4171 56.6498 21.9789 56.4152C22.6799 56.1231 23.3417 55.7368 24.0024 55.363C26.0248 54.2186 27.9832 52.9789 29.7469 51.4838C30.662 50.7079 31.5183 49.8651 32.3681 49.0212C33.306 48.0904 34.0841 47.0371 34.6547 45.8602C35.1774 44.7828 35.4632 43.651 35.1785 42.4553C34.8611 41.1224 33.9048 40.3194 32.6866 39.7498C31.1151 39.0158 29.4155 38.8588 27.7104 38.7572C27.1866 38.7258 26.6541 38.8452 26.1259 38.8483C24.9044 38.8546 23.7155 39.0724 22.5201 39.2807C19.7054 39.7728 17.0668 40.7487 14.5293 41.9789C12.133 43.1401 9.90087 44.5504 7.86214 46.2476C6.03533 47.7679 4.34545 49.4012 2.99245 51.334C2.04155 52.6931 1.24606 54.1264 0.94286 55.7619C0.811364 56.4739 0.904824 57.1607 1.40581 57.745C1.84485 58.258 2.47408 58.4318 3.10221 58.5899C4.21286 58.8705 5.36155 58.8663 6.49067 58.8998C8.94888 58.9742 11.4147 58.8485 13.8664 59.1375C14.7619 59.2432 15.6649 59.3102 16.5506 59.4694C17.8156 59.6966 19.0328 60.0693 20.0336 60.909C20.0619 60.9331 20.126 60.9174 20.1782 60.9206C20.0543 60.1175 19.9347 59.3406 19.8043 58.4936L19.8076 58.4967Z" fill="white"/>
<path d="M32.8735 61.6957C33.0387 61.5177 33.1735 61.3135 33.3061 61.0979C33.4267 60.7356 33.5104 60.3346 33.5451 59.9095C33.5593 59.7315 33.5647 59.5566 33.5615 59.3849C33.5593 59.3849 33.556 59.3828 33.5538 59.3818C33.556 59.3807 33.5593 59.3797 33.5615 59.3786C33.5538 58.9808 33.3474 58.2803 33.3158 58.2877C32.7964 57.3705 31.739 55.8565 29.6264 55.756C29.5101 55.3015 29.1373 55.3455 28.8287 55.4073C28.4907 55.4743 28.168 55.6031 27.8876 55.7978C27.2627 56.2303 26.8095 56.826 26.4444 57.4699C26.0836 58.1065 25.7717 58.7682 25.4131 59.4666C25.325 59.3001 25.2587 59.1692 25.1881 59.0415C25.0218 58.741 24.8708 58.43 24.6806 58.1432C24.5165 57.895 24.2915 57.8615 24.0503 58.0741C24.0709 58.1494 24.0764 58.2081 24.1025 58.2562C24.7317 59.3828 25.2533 60.5367 25.1783 61.8601C25.1599 62.1951 25.3555 62.3815 25.7369 62.437C26.1618 61.8098 25.7663 61.057 26.0564 60.4089C26.3509 59.7493 26.5552 59.0499 26.8834 58.407C27.1986 57.7893 27.5626 57.1768 28.2299 56.7936C28.2114 57.0228 28.1332 57.2249 28.0712 57.4322C27.8061 58.3191 27.5268 59.1996 27.7713 60.1461C27.931 60.766 28.2006 61.3156 28.6592 61.7784C29.3058 62.4318 30.1034 62.6548 31.0196 62.5742C31.7585 62.5092 32.3899 62.2161 32.8725 61.6947L32.8735 61.6957ZM31.4358 61.4873C30.3262 62.0381 29.2645 61.3146 28.8939 60.5471C28.6309 60.0027 28.6081 59.4404 28.6766 58.8845C28.7657 58.1568 28.9993 57.4563 29.3818 56.737C30.7066 56.9862 31.6792 57.6217 32.4008 58.6625C32.7573 58.9714 32.7497 59.9796 32.5508 60.3503C32.3943 60.9209 31.9455 61.234 31.4369 61.4863L31.4358 61.4873Z" fill="white"/>
<path d="M97.8064 59.4059C97.2424 59.4415 96.9533 59.519 96.4403 59.5954C95.358 59.7577 94.2788 59.9357 93.1932 60.0708C92.3575 60.1755 91.5141 60.232 90.673 60.298C89.7721 60.3681 88.8712 60.4624 87.9692 60.477C87.0455 60.4917 86.1174 60.4613 85.198 60.3817C84.1852 60.2938 83.1778 60.1441 82.1725 59.9922C81.0336 59.8205 79.9056 59.5462 78.7612 59.4478C77.4702 59.3368 76.1639 59.3829 74.8979 59.7137C73.3808 60.1106 71.8724 60.5378 70.3597 60.9524C69.7174 61.1283 69.0729 61.2769 68.3948 61.2466C67.4646 61.2047 66.743 60.8466 66.2442 60.0645C65.6834 59.185 65.4628 58.2081 65.4074 57.2114C65.3074 55.3937 65.4215 53.5772 65.6443 51.7689C65.6856 51.4328 65.7171 51.0926 65.7964 50.7638C66.2952 48.7137 66.8267 46.671 67.3037 44.6157C67.5417 43.5875 67.6928 42.5405 67.8699 41.4998C67.9743 40.8872 68.0525 40.2706 68.147 39.656C68.2579 38.9314 68.3894 38.21 68.4796 37.4834C68.5405 36.9902 68.3177 36.8311 67.8134 36.918C67.4874 36.9745 67.4189 37.2195 67.3689 37.452C67.1038 38.6843 66.8582 39.9219 66.6028 41.1563C66.3702 42.2808 66.1257 43.4032 65.9018 44.5288C65.7073 45.5078 65.5334 46.4909 65.3519 47.473C65.1976 48.3064 65.1096 49.1566 64.8749 49.9681C64.5554 51.0748 64.1848 52.1762 63.7294 53.2369C62.6807 55.6754 61.3462 57.9369 59.2021 59.675C58.3544 60.3629 57.4231 60.8728 56.3461 61.0853C55.3007 61.2916 54.3617 60.9932 53.7108 60.1765C53.0707 59.3745 52.6795 58.4688 52.7316 57.3967C52.7881 56.2481 53.1609 55.2482 53.9596 54.4106C54.3954 53.953 54.9344 53.6494 55.6256 53.685C56.1483 53.7122 56.3733 53.8913 56.4298 54.397C56.4505 54.5854 56.382 54.8063 56.4624 54.9592C56.57 55.1613 56.7558 55.3864 56.9623 55.4618C57.1797 55.5403 57.3361 55.3163 57.4068 55.0995C57.6122 54.465 57.3014 53.3363 56.6222 52.9353C55.9745 52.5532 54.5943 52.6181 53.7847 53.2285C52.7284 54.0242 52.1274 55.065 51.8438 56.3193C51.5601 57.5726 51.3515 58.8458 50.7548 60.0216C50.5321 60.4613 50.118 60.789 49.6268 60.9136C49.5203 60.9408 49.4149 60.9775 49.3073 61.0005C48.3499 61.2016 47.7815 60.8864 47.5077 60.0059C47.3566 59.52 47.3479 59.5043 47.825 59.253C48.4553 58.9222 49.0237 58.5264 49.4421 57.9568C50.1876 56.9423 50.657 55.8565 50.3962 54.5739C50.2169 53.6923 49.2443 53.3667 48.4553 53.6536C48.3282 53.6997 48.1901 53.8295 48.1445 53.952C47.9293 54.5299 47.5555 55.0315 47.4142 55.6576C47.2034 56.5947 46.8241 57.4962 46.5611 58.4249C46.4872 58.6845 46.3655 58.8185 46.1286 58.9023C45.5374 59.1107 44.956 59.3452 44.355 59.5242C43.9062 59.6582 42.7162 59.9095 41.8914 58.3599C41.8914 58.3578 41.2317 56.6543 41.1111 56.1916C40.8057 55.0168 40.5014 53.841 40.2004 52.6641C40.1319 52.3972 40.2939 52.1249 40.5677 52.0464H40.5721C41.0698 51.903 41.5686 51.7606 42.0522 51.5711C43.4693 51.0172 48.1293 48.965 49.4236 48.0991C49.4942 48.052 49.7507 47.8143 49.4421 47.8573C49.0508 47.9651 45.5135 49.3074 45.1668 49.4487C44.4344 49.7471 43.7073 50.0623 42.9673 50.3356C42.3978 50.546 41.8131 50.7115 41.2328 50.8842C40.884 50.9879 40.5373 51.0989 40.1874 51.1994C40.0048 51.2517 39.8146 51.147 39.769 50.969C39.7233 50.791 39.6777 50.6141 39.6331 50.4361C39.5592 50.145 39.4777 49.8351 39.5092 49.5451C39.5701 48.986 39.7146 48.4352 39.8146 47.8803C39.9613 47.0636 40.1004 46.2459 40.2406 45.4282C40.3841 44.5927 40.5221 43.7561 40.671 42.9216C40.8557 41.884 41.0546 40.8496 41.2339 39.8109C41.3784 38.9764 41.4969 38.1378 41.636 37.3033C41.7816 36.4322 41.9522 35.5663 42.0859 34.6931C42.1946 33.9853 42.263 33.2723 42.3511 32.5624C42.4706 31.5897 42.6641 30.6202 42.6956 29.6454C42.7401 28.2644 42.8119 26.875 42.5782 25.5013C42.4869 24.9631 42.3576 24.426 42.0348 23.9569C41.7534 23.5475 41.3882 23.3277 40.8546 23.3371C40.2743 23.3486 39.8364 23.5988 39.4723 23.9925C38.6768 24.8521 38.3095 25.9169 37.9802 26.9922C37.6096 28.2036 37.326 29.4328 37.2293 30.6987C37.1651 31.5447 37.0565 32.3865 37 33.2325C36.9456 34.0471 36.9108 34.8637 36.9108 35.6794C36.9108 36.4762 36.9663 37.2729 36.9945 38.0687C37.0043 38.3535 36.988 38.6403 37.0141 38.923C37.0804 39.6549 37.1684 40.3847 37.2369 41.1166C37.289 41.6798 37.3184 42.2463 37.3705 42.8096C37.4031 43.1656 37.452 43.5205 37.5064 43.8744C37.6172 44.6 37.7324 45.3245 37.852 46.048C37.9965 46.9212 38.153 47.7913 38.2932 48.6656C38.4073 49.3765 38.4442 50.0466 38.4866 50.8141C38.5073 51.1826 38.5192 51.1146 38.4942 51.2674C38.4768 51.3721 38.4747 51.4894 38.3367 51.5805C38.0215 51.6213 37.7053 51.6527 37.3868 51.6726C36.6555 51.7176 34.8189 51.8579 34.1299 50.8853C33.1888 49.5555 32.0129 52.616 32.9432 52.5479C33.7419 52.4893 34.5646 52.5992 35.3785 52.6547C36.3218 52.7196 37.2543 52.6935 38.1769 52.5919C38.1041 53.0641 38.0302 53.5363 37.953 54.0075C37.8009 54.9351 37.6281 55.8586 37.4868 56.7873C37.4118 57.2784 36.4446 63.5542 36.3457 64.0903C36.2121 64.8117 36.1132 65.5394 36.0099 66.266C35.9067 66.9947 35.8219 67.7255 35.7198 68.4543C35.6122 69.2186 35.4785 69.9798 35.3818 70.7462C35.2775 71.5692 35.2101 72.3963 35.1156 73.2214C35.0025 74.2129 34.8058 75.2013 34.7787 76.1949C34.7482 77.289 34.7026 78.3863 34.858 79.4878C35.0503 80.8573 35.6774 81.9525 36.7261 82.8581C37.0141 83.1063 37.3325 83.2989 37.7118 83.4822C37.8411 83.545 37.9976 83.4309 37.9585 83.2968C37.953 83.277 37.9443 83.2612 37.9313 83.2476C37.7715 83.0822 37.5933 82.9252 37.3977 82.8006C36.3936 82.1619 35.7763 81.273 35.5437 80.1432C35.4568 79.7202 35.4242 79.2868 35.3785 78.8564C35.3427 78.5193 35.296 78.179 35.3046 77.8419C35.3188 77.3142 35.3742 76.7865 35.4177 76.2598C35.459 75.752 35.4916 75.2432 35.5579 74.7374C35.6611 73.9543 35.7991 73.1763 35.9034 72.3932C36.0023 71.6466 36.0588 70.8938 36.1643 70.1483C36.3066 69.1432 36.4859 68.1423 36.6337 67.1371C36.7728 66.1875 36.8859 65.2336 37.026 64.2829C37.0489 64.129 37.589 60.988 37.7379 60.1189C37.8313 59.5808 37.9117 59.0395 38.0248 58.5044C38.0508 58.3809 38.9311 53.2965 39.0398 53.2704C39.757 53.0934 40.1298 56.5549 40.4764 57.6972C41.9653 63.0391 45.194 60.2969 46.4698 59.9357C46.4894 60.0111 46.5111 60.0812 46.5252 60.1524C46.7361 61.2445 47.6207 62.0999 48.7563 62.0036C49.316 61.9565 49.8735 61.8402 50.4201 61.7094C50.9048 61.5931 51.2265 61.2654 51.4417 60.8288C51.6395 60.4268 51.8666 60.0394 52.1165 59.5797C52.2589 59.7818 52.385 59.9252 52.4686 60.0886C52.9359 60.9984 53.663 61.6088 54.6595 61.9428C55.7778 62.3166 56.8417 62.0884 57.8632 61.6591C59.0456 61.1628 60.0617 60.4393 60.9365 59.5001C61.9841 58.3756 62.8774 57.1642 63.5925 55.8241C63.8055 55.4241 64.0185 55.0241 64.2304 54.6242L64.3652 54.6556C64.3652 55.3341 64.3521 56.0125 64.3684 56.691C64.3934 57.7527 64.5391 58.7986 64.9759 59.7849C65.6628 61.3324 66.7549 62.2758 68.6991 62.2255C69.7272 62.1994 70.7041 61.9104 71.6811 61.634C72.7929 61.3188 73.9013 60.9922 75.0153 60.6864C76.2846 60.3388 77.5941 60.3357 78.8851 60.4362C79.9936 60.522 81.0891 60.7786 82.1867 60.9796C83.7309 61.2623 85.2893 61.4131 86.8575 61.4549C87.5421 61.4738 88.2311 61.4036 88.9158 61.3523C89.8145 61.2864 90.7176 61.2382 91.6087 61.1147C93.6952 60.8246 95.7133 60.2519 97.7162 59.6331C97.8259 59.5996 98.24 59.4122 97.8064 59.3986V59.4059ZM49.2149 54.6137C49.4997 54.7226 49.5138 54.9278 49.5062 55.1435C49.4671 56.2764 48.6368 57.5904 47.6033 58.1568C47.4707 57.4197 48.2695 55.6492 49.2138 54.6137H49.2149ZM38.5127 43.5373C38.3725 42.3604 38.2551 41.1794 38.1443 39.9994C38.0845 39.3607 38.1171 38.7094 38.0041 38.0812C37.827 37.097 37.9226 36.1128 37.8976 35.1297C37.865 33.8617 38.0074 32.6043 38.1258 31.3426C38.2649 29.8537 38.554 28.3984 39.0126 26.9776C39.2202 26.3347 39.5582 25.7306 39.8472 25.1128C39.9113 24.9767 40.0113 24.8542 40.1102 24.7369C40.3363 24.4658 40.6014 24.1883 40.9861 24.2564C41.3415 24.3192 41.4295 24.6678 41.486 24.9673C41.6153 25.65 41.7664 26.3347 41.8197 27.0247C41.8773 27.7618 41.8631 28.5073 41.824 29.2475C41.786 29.9794 41.6795 30.7092 41.6012 31.4389C41.5567 31.8515 41.5186 32.265 41.4589 32.6765C41.3045 33.7392 41.1415 34.7999 40.9785 35.8605C40.847 36.718 40.7188 37.5755 40.5743 38.4299C40.3895 39.523 40.1863 40.6129 39.9961 41.705C39.8603 42.4829 39.7299 43.2619 39.6016 44.0409C39.4343 45.0596 39.2702 46.0784 39.105 47.0971C39.0669 47.1013 39.0278 47.1066 38.9898 47.1107C38.83 45.9203 38.6551 44.7309 38.5127 43.5383V43.5373Z" fill="white"/>
<path d="M72.0385 26.629C71.4853 24.8606 70.316 23.3435 69.2206 21.8274C67.7154 19.7459 66.3135 17.5943 65.0192 15.3851C64.6269 14.715 64.2324 13.9831 64.3215 13.2177C64.3606 12.8816 64.4943 12.5508 64.4519 12.2147C64.4063 11.8503 64.1639 11.5414 63.9292 11.2525C63.0131 10.1217 62.0959 8.99089 61.1797 7.86011C62.1959 6.88743 62.8827 5.59854 63.1098 4.23637C63.0772 5.7734 63.0457 7.31147 63.0131 8.8485C64.478 7.62244 64.1303 5.31166 63.8466 3.56313C63.7836 3.17678 63.4467 2.8721 63.0403 2.8721C62.3752 2.8721 62.2567 3.63852 62.1839 4.21543C62.0372 5.35982 61.4569 6.44768 60.5766 7.22771C59.567 6.5817 58.3901 6.17964 57.1838 6.06866C58.477 4.72323 59.5833 3.21029 60.4603 1.58322C60.6462 1.23875 60.5505 0.800044 60.2104 0.592733C59.8202 0.354012 59.4475 0.623097 59.1519 0.871241C57.7098 2.08264 56.2677 3.29405 54.8256 4.50441C54.3963 4.86458 53.9442 5.2614 53.8182 5.79643C53.6921 6.33146 54.092 7.00365 54.6582 6.9492C54.1909 7.18478 53.7225 7.41931 53.2552 7.65489C53.4041 7.03925 53.5519 6.4236 53.7008 5.80795C49.8603 5.70953 46.0545 6.90313 42.7736 8.8286C39.4917 10.7541 36.7053 13.3852 34.2883 16.2635C32.3985 18.5146 30.7075 20.9489 29.5675 23.6283C28.3732 26.4353 27.8059 29.4612 27.5897 32.4881C27.5506 33.0368 27.5245 33.5896 27.5147 34.1435C27.5103 34.3686 27.8516 34.4 27.8929 34.178C28.4319 31.2956 29.6175 25.894 31.4356 22.6503C33.7819 18.4633 36.8987 14.4197 40.6947 11.4399C40.7371 11.4064 40.7795 11.3739 40.8218 11.3404C44.2168 8.70715 48.3497 6.83508 52.6988 6.5618C51.9262 7.04657 52.2978 8.46005 53.2172 8.53125C53.9312 8.58674 54.4985 8.00565 55.0918 7.6172C56.4981 6.69792 58.5661 6.87486 59.7833 8.01716C58.4118 9.46101 57.1762 11.0253 56.0971 12.6827C55.9025 12.9811 55.708 13.2994 55.6906 13.6501C55.658 14.3077 56.2329 14.8291 56.7589 15.2489C57.2012 15.6028 57.7576 15.9787 58.3021 15.8007C59.053 15.5547 58.8259 14.2166 58.0326 14.2134C57.8587 13.9412 58.2423 13.5957 58.5683 13.6564C58.8943 13.7171 59.116 14.0009 59.3062 14.2637C60.3071 15.6468 61.308 17.0299 62.3089 18.4141C63.5956 20.193 64.8844 21.975 66.0114 23.8523C66.7515 25.0857 67.4405 26.4531 67.284 27.8697C67.2296 28.365 67.0731 28.878 67.3981 29.3335C67.5741 29.5795 67.9197 29.6769 68.1838 29.5198C68.8511 29.1241 67.948 27.853 68.6228 27.4572C68.8652 27.3148 69.1782 27.3703 69.3846 27.5577C70.5051 28.5807 69.9584 30.2046 69.8998 31.5814C69.8943 31.7144 69.9313 31.8484 70.015 31.9542C70.2899 32.2986 70.7539 32.0693 71.0321 31.8055C72.3982 30.5093 72.5894 28.3932 72.0374 26.6248L72.0385 26.629ZM56.5459 5.35249C56.3318 5.58912 56.1101 5.83412 55.871 5.98489C55.8178 6.0184 55.7656 6.04667 55.7145 6.06761C55.3624 6.21419 54.8821 6.12729 54.5332 6.02573C54.5387 6.01421 54.5452 6.00165 54.5539 5.98699C54.9343 5.33679 55.5646 4.84259 56.1742 4.36515L59.0845 2.08474C59.0052 2.22609 58.9204 2.3622 58.8378 2.48994C58.2347 3.42597 57.5337 4.31175 56.7567 5.1232C56.6883 5.19439 56.6176 5.27187 56.5459 5.35145V5.35249ZM71.3484 28.7712C71.331 28.8424 71.3093 28.9733 71.2658 29.2487C71.2473 29.3628 71.2256 29.5052 71.2191 29.5324C71.1539 29.7805 71.0658 30.0245 70.955 30.2611C70.9832 29.8811 70.9593 29.5041 70.9365 29.1366C70.9267 28.99 70.918 28.8393 70.8876 28.6843C70.8072 28.2718 70.5996 27.9252 70.3997 27.5891C70.2225 27.2928 69.9954 26.963 69.6444 26.7578C69.3368 26.5777 69.0054 26.5023 68.6707 26.5348C68.5696 26.5442 68.4685 26.5641 68.3675 26.5934C68.2805 26.6185 68.1979 26.6521 68.1197 26.6887C68.048 26.473 67.9621 26.2165 67.8763 25.9621C67.7643 25.6291 67.6535 25.2983 67.5774 25.0669C67.5676 25.025 67.5524 24.981 67.5317 24.9328C67.1503 24.0376 66.0114 22.1781 65.4637 21.284V21.2819C65.443 21.2452 65.4224 21.2117 65.3985 21.1793C65.3876 21.1625 65.3746 21.1458 65.3615 21.129C64.9475 20.5689 64.5367 20.0056 64.1259 19.4433C63.8901 19.1208 63.6553 18.7994 63.4195 18.478C63.3761 18.4193 62.8153 17.6958 62.6936 17.5545C62.323 17.0519 61.9535 16.5493 61.5829 16.0457C61.3167 15.6824 61.0493 15.3201 60.782 14.9568C60.7472 14.9097 60.6125 14.7087 60.4821 14.515C60.2365 14.1496 60.0528 13.8784 59.9724 13.7716L59.8963 13.6355C59.7876 13.4397 59.679 13.2449 59.567 13.0471C59.4573 12.8554 59.2345 12.7424 58.9987 12.7612L58.9063 12.7685C58.7118 12.7832 58.5107 12.7979 58.3108 12.8345C57.8054 12.9277 57.4109 13.1162 57.1056 13.4093C56.9219 13.5852 56.8263 13.7967 56.8295 14.0114C56.8165 13.9998 56.8045 13.9894 56.7915 13.9779C56.7698 13.959 56.748 13.9391 56.7263 13.9192C56.4524 13.669 56.4296 13.4543 56.647 13.1538C56.8904 12.8178 57.1251 12.4691 57.3512 12.132C57.4348 12.0074 57.5185 11.8817 57.6033 11.7571C57.6305 11.7163 57.6544 11.6755 57.675 11.6388C57.8282 11.4524 58.1108 11.0807 58.3847 10.7216C58.6118 10.4232 58.8465 10.1133 58.9269 10.0201C59.4051 9.45577 59.8713 8.97938 60.3495 8.56371C60.3712 8.54486 60.394 8.52602 60.4169 8.50717C60.5451 8.64642 60.6668 8.7773 60.7777 8.91237C61.0059 9.19087 61.2319 9.47985 61.4514 9.75836L61.6655 10.0316C61.784 10.1939 62.5382 11.1509 62.599 11.2148L62.8218 11.4503C63.0989 11.7456 63.3858 12.0503 63.6793 12.3424C63.6869 12.3497 63.6934 12.3571 63.6977 12.3623C63.6869 12.3853 63.676 12.4094 63.6651 12.4335C63.6564 12.4534 63.6477 12.4733 63.638 12.4921C63.288 13.1371 63.2782 13.8145 63.6064 14.5066C64.0933 15.5316 64.6508 16.5682 65.3126 17.6728C65.367 17.8141 65.5202 18.0654 65.8723 18.59C65.9027 18.635 65.9266 18.6706 65.9397 18.6915C66.4331 19.4485 66.9438 20.2097 67.4383 20.9468L67.648 21.2588C67.7208 21.3667 67.7969 21.4703 67.8849 21.5907C67.8936 21.6075 67.9034 21.6232 67.9132 21.6389C68.0566 21.8724 68.2414 22.1624 68.4381 22.4702C68.6631 22.8231 68.8967 23.1875 69.0597 23.4597C69.1912 23.6785 69.3238 23.8973 69.4564 24.1162C69.8748 24.8062 70.3073 25.5202 70.7126 26.2311C71.1854 27.0593 71.3984 27.9137 71.3473 28.7691L71.3484 28.7712Z" fill="white"/>
<path d="M56.7828 25.5797C55.4798 25.2111 54.1008 25.1054 52.8325 24.6374C51.5654 24.1683 50.3613 23.2009 50.1939 21.9025C50.0516 20.7958 50.6764 19.753 51.0753 18.706C51.5447 17.4715 51.7088 16.1314 51.5502 14.8257C51.5034 14.4446 51.4122 14.03 50.9655 13.8708C50.6797 13.7693 50.3613 13.8258 50.1092 13.9913C49.5821 14.3368 49.4245 14.9409 49.3017 15.5115C48.4747 19.3782 48.3921 23.3726 48.8159 27.2989C49.2452 31.265 50.1863 35.1871 50.233 39.1742C50.245 40.15 50.3406 41.3227 50.4297 42.2189C50.4526 42.4503 50.7992 42.4619 50.8384 42.2326C51.1253 40.5615 51.2665 39.2025 51.2242 37.2812C51.1231 32.6879 49.3876 28.2004 49.6071 23.6102C50.2809 24.9169 51.636 25.877 53.1325 26.1063C54.1127 26.2571 55.1223 26.1116 56.1014 26.2623C57.4718 26.4728 58.6759 27.2413 59.7594 28.0758C61.0896 29.0998 62.3133 30.2525 63.4054 31.5111C64.1379 32.3539 64.9486 33.3203 66.0853 33.4083C63.5858 30.1614 60.8049 26.7188 56.7785 25.5786L56.7828 25.5797ZM49.7386 19.8116C49.731 19.8253 49.7245 19.8389 49.7179 19.8514C49.7081 19.6766 49.6951 19.4839 49.6853 19.3174C49.6745 19.1457 49.6636 18.9688 49.6614 18.9227C49.6734 18.7646 49.6832 18.6065 49.6918 18.4484C49.7136 18.0799 49.7342 17.7323 49.7897 17.3867C49.8462 17.0308 50.045 16.3125 50.2048 15.7356C50.2906 15.4236 50.3732 15.1283 50.4221 14.9252C50.4939 14.7524 50.5667 14.6425 50.6645 14.5598C50.6906 14.5378 50.709 14.5263 50.721 14.52C50.7297 14.5273 50.7416 14.5399 50.7558 14.5587C50.8666 14.699 50.8938 14.898 50.9242 15.1084L50.9362 15.1901C50.9416 15.2299 50.9383 15.2812 50.9329 15.3325C50.9242 15.3608 50.9188 15.3932 50.9199 15.4299L50.9155 15.4665C50.7818 16.524 50.5243 17.6139 50.3537 18.0558C50.233 18.3688 50.1646 18.5521 50.0613 18.8798C50.0407 18.9437 50.0266 19.0023 50.0114 19.0662C49.9798 19.197 49.9407 19.3593 49.819 19.6588C49.8092 19.6818 49.7679 19.7603 49.7408 19.8116H49.7386Z" fill="white"/>
</svg>
