<svg width="17" height="24" viewBox="0 0 17 24" fill="none" xmlns="http://www.w3.org/2000/svg">
<path d="M0.0146693 0V5.26018H0.321862C0.638546 4.10181 1.01563 3.14854 1.45312 2.49277C1.89061 1.83701 2.34709 1.35818 2.82168 1.05362C3.29628 0.749945 3.76656 0.564219 4.23253 0.498203C4.69763 0.432187 5.117 0.398738 5.48977 0.398738H7.1103V5.16159C6.86696 5.1704 6.62017 5.17568 6.36821 5.17568C6.10761 5.19504 5.84701 5.20912 5.58642 5.21793C5.32496 5.22761 5.06436 5.23201 4.80377 5.23201H0.0155322V5.63075H2.65256V23.5995H0V23.9982H8.54789V23.5995H5.44663V18.7662H13.0056V18.3675H9.90437V15.7119C10.1011 15.6714 10.2961 15.6274 10.4894 15.5763C11.43 15.3299 12.254 14.9778 12.9616 14.5218C13.6692 14.0659 14.237 13.5061 14.6659 12.8406C15.0939 12.176 15.3087 11.4155 15.3087 10.5608C15.3087 9.70615 15.1223 9.00374 14.7496 8.3383C14.3768 7.67373 13.8599 7.10335 13.1989 6.62804C12.5379 6.1536 11.7553 5.78743 10.8527 5.53128C10.5464 5.44414 10.2297 5.37285 9.90437 5.31563V0.398738H11.5249C11.8977 0.398738 12.3162 0.432187 12.7821 0.498203C13.2472 0.565099 13.7184 0.749945 14.193 1.05362C14.6676 1.35818 15.1241 1.83701 15.5615 2.49277C15.999 3.14854 16.3761 4.05604 16.6928 5.21441H17V0H0.0146693ZM5.44663 18.3684V15.7198C5.76331 15.777 6.12659 15.8298 6.53647 15.8765C6.74788 15.9011 6.93945 15.9187 7.11116 15.9311V18.3684H5.44663ZM10.9364 6.58666C11.3368 6.9766 11.6302 7.49417 11.8166 8.13937C12.0029 8.78545 12.0961 9.59261 12.0961 10.5617C12.0961 12.2341 11.7096 13.4823 10.9364 14.3088C10.1632 15.1353 9.08807 15.5482 7.71001 15.5482C7.39333 15.5482 7.03005 15.5297 6.62017 15.4909C6.21029 15.4531 5.8194 15.3959 5.44663 15.3202V5.63163C5.59591 5.61314 5.81422 5.59378 6.10329 5.57442C6.3915 5.55593 6.71337 5.54625 7.06715 5.54625C7.08182 5.54625 7.09649 5.54625 7.11116 5.54625V14.8994C7.32602 14.9118 7.52622 14.9188 7.71001 14.9188C8.55566 14.9188 9.2874 14.7621 9.90523 14.4514V5.93883C10.3091 6.0955 10.6534 6.31028 10.9373 6.5849L10.9364 6.58666Z" fill="black"/>
</svg>
