<svg width="168" height="87" viewBox="0 0 168 87" fill="none" xmlns="http://www.w3.org/2000/svg">
<g clip-path="url(#clip0_229_785)">
<path d="M79.2331 50.9889C79.0079 49.9799 78.6681 48.9461 78.1967 47.8264C76.8702 44.6906 75.2249 41.6616 73.6311 38.7318C71.5736 34.9456 69.4454 31.0316 68.0177 26.8867C67.7123 25.9998 67.4795 25.0842 67.8421 24.3976C67.8879 24.3117 67.9471 24.2202 68.0101 24.1248C68.1838 23.8578 68.3823 23.5545 68.4243 23.1539C68.4873 22.5702 68.1761 22.0762 67.9719 21.7481L63.2575 14.2081C65.2635 12.6974 66.7007 10.3932 67.2352 7.80297C67.2352 7.8106 67.2371 7.81632 67.239 7.82395C67.2695 8.0414 67.3058 8.31225 67.3096 8.37329C67.3363 9.16105 67.3096 9.96027 67.2313 10.7499C67.0634 12.417 66.6034 13.9544 66.1281 15.3735L66.0136 15.7379L66.6148 16.2071L66.9374 16.003C68.1017 15.2686 68.5827 13.2067 68.7793 11.6045C68.9816 9.96026 68.8709 8.28364 68.7392 6.70811C68.7106 6.3724 68.6533 5.67428 67.9719 5.37673C67.5501 5.19171 67.0634 5.25274 66.6759 5.54267C66.0613 5.99855 65.9258 6.68713 65.8151 7.24028L65.7884 7.37189C65.3379 9.58069 64.0706 11.6006 62.284 12.9759C60.5987 11.5511 58.5488 10.5916 56.3824 10.2025C58.9878 7.93267 61.2476 5.31378 63.1143 2.40115C63.4961 1.80603 63.3682 1.01826 62.8242 0.60626C62.765 0.560482 62.7059 0.524241 62.6467 0.493722L62.6601 0.436499L62.6047 0.47274C62.0111 0.194257 61.4442 0.566204 61.2171 0.716891C57.7223 3.00771 54.2981 5.4988 51.0419 8.11769C50.5037 8.55068 50.2155 9.13244 50.2479 9.71421C50.2804 10.2693 50.5991 10.7633 51.145 11.1104C51.3359 11.2306 51.5363 11.3203 51.7405 11.3889C50.9579 11.8639 50.0628 12.2148 49.1294 12.4056C49.1103 12.4094 49.0932 12.4132 49.0779 12.4151C49.0836 12.398 49.0913 12.3789 49.0989 12.3579C49.1943 12.1157 49.2955 11.8734 49.3986 11.6293C49.6486 11.0361 49.9082 10.4219 50.0761 9.78669L50.1945 9.33654L49.7669 9.15152C48.7801 8.72616 47.2036 8.74333 46.0507 8.75477C45.9152 8.75477 45.7873 8.75859 45.6652 8.75859C44.2604 8.76622 42.8461 8.87876 41.4623 9.0962C38.939 9.49295 36.3241 10.233 33.6882 11.2955C27.3228 13.8609 21.1387 17.7559 16.2715 22.2612C14.8477 23.5812 11.6182 27.0412 11.4292 27.2797C11.2918 27.4532 11.1467 27.6192 10.9921 27.7947C10.8738 27.9301 10.7554 28.0636 10.6428 28.2029C9.80683 29.21 8.97274 30.219 8.14056 31.228L7.26447 32.2886C6.92664 32.6987 5.71081 34.5832 5.58674 34.7835C3.78877 37.677 1.59379 41.5071 0.555467 45.4765C-0.0018668 47.6071 -0.419867 50.7982 0.755879 53.9054C1.14334 54.9316 1.74267 55.8777 2.35726 56.4365C2.83252 56.8695 3.26006 56.9058 3.54255 56.8524L3.56927 56.9039L3.57881 56.8447C3.63226 56.8333 3.67997 56.818 3.72197 56.8028C4.41291 56.5453 4.75647 55.6411 4.84427 54.8801C5.16302 52.1582 6.13454 49.5126 7.65384 47.2313C7.83899 46.9509 8.06039 46.6457 8.32379 46.558C8.5891 46.4683 8.92502 46.5828 9.31439 46.7163C10.055 46.97 11.1754 47.3515 12.1927 46.0239C12.7653 45.2781 13.0573 44.3168 13.0153 43.3173C12.9199 41.0398 13.0917 38.749 13.5307 36.5097C13.586 36.2255 13.6967 35.968 13.8475 35.7639C14.2502 35.2203 14.6224 35.2699 15.3573 35.5998C19.4323 37.4253 23.1199 40.7709 26.0191 45.2762C28.844 49.6652 30.6 54.552 31.9475 58.756C34.3563 66.2788 36.7593 76.0716 33.9287 85.0956C33.8066 85.4885 33.9173 85.9062 34.2131 86.1599C34.3773 86.3011 34.5758 86.3755 34.7781 86.3755C34.8563 86.3755 34.9365 86.364 35.0148 86.3411C35.4919 86.2038 35.8049 85.6926 35.9271 85.2978C38.0572 78.3834 40.2579 71.2324 40.298 63.8087C40.3132 60.9571 40.0059 58.0502 39.7082 55.2368C39.2005 50.4282 38.7157 45.8523 39.67 41.427C40.8553 44.4121 43.6859 46.7182 46.9154 47.1054C47.4899 47.1741 48.0663 47.1874 48.6236 47.1989C49.4864 47.218 50.2994 47.2351 51.0744 47.4469C52.1146 47.7311 53.067 48.3796 53.9431 49.0376C56.8958 51.2579 59.4955 53.8939 61.6714 56.8772C61.9367 57.2396 62.1962 57.6096 62.4577 57.9796C63.6354 59.6525 64.8512 61.3825 66.5652 62.5918C66.7981 62.7558 67.1206 62.7215 67.3134 62.5117C67.5062 62.3 67.5119 61.9776 67.3287 61.7602C66.0613 60.2647 64.8837 58.6434 63.7442 57.0755C62.4902 55.3493 61.1923 53.5621 59.757 51.9198C56.3538 48.0191 52.733 45.7225 48.9958 45.0931C48.6351 45.0321 48.2705 44.9863 47.9174 44.9424C47.049 44.8337 46.2282 44.7307 45.48 44.4217C44.5505 44.0383 43.6802 43.3154 42.7411 42.1461C41.7944 40.9673 41.279 39.9564 41.1206 38.9626C40.8305 37.1487 41.6856 35.4206 42.5922 33.5913C42.8442 33.0821 43.1037 32.5575 43.3347 32.0349C44.3005 29.8394 44.8044 27.4151 44.7891 25.0213C44.7853 24.5273 44.5849 24.0657 44.2375 23.7586C43.9073 23.4648 43.5046 23.3504 43.0732 23.4248C42.2735 23.564 41.5997 24.327 41.2657 24.9374C39.9239 27.3941 39.3074 30.0912 38.792 33.3853C37.8339 39.5253 37.4311 45.7893 37.5953 52.0037C37.6411 53.7452 37.7308 55.5305 37.8167 57.2586C38.1316 63.5512 38.4561 70.025 36.7822 75.9819C36.515 65.2355 33.3275 54.4719 27.6644 45.3544C24.0742 39.573 20.3752 36.0748 16.0215 34.3467C15.4164 34.1063 14.7923 34.0281 14.2121 34.1178C11.9312 34.4707 11.7422 36.8111 11.6506 37.9364L11.1009 44.7154C11.0914 44.8394 11.0608 44.9443 11.0112 45.0187C10.8604 45.2514 10.6008 45.2285 9.84119 45.0378C9.47663 44.9462 9.09871 44.8509 8.71507 44.8489C7.16522 44.8356 6.18798 46.4378 5.86923 46.9624C4.62286 49.0224 3.70097 51.235 3.12073 53.5563C1.39147 48.6523 3.58263 42.9129 5.8635 38.7891C10.4844 30.4403 17.2087 23.1787 25.3072 17.7921C29.7353 14.8471 36.452 10.8815 43.6172 10.4524C45.0544 10.3665 46.1653 10.315 47.215 10.2883C47.549 10.2807 47.8945 10.296 48.2553 10.317C48.198 10.4524 48.1426 10.5878 48.0873 10.7251L48.0109 10.914L47.9938 10.9598C47.946 11.1047 47.5815 11.8734 47.4441 12.1633C47.3754 12.3083 47.32 12.4227 47.2971 12.4762C47.1501 12.7985 47.1578 13.1247 47.32 13.3974C47.5605 13.8018 48.093 14.0269 48.9481 14.0879C49.7994 14.1471 50.3968 13.7923 50.9751 13.4489C51.124 13.3593 51.2786 13.2677 51.437 13.1838C52.9449 12.3827 54.928 11.5186 56.8978 11.9516C58.3693 12.274 59.6272 13.2754 60.7495 14.2596C58.0601 16.6801 55.5579 19.3372 53.3056 22.1678C52.4773 23.2092 51.7825 24.4777 52.922 25.9769C53.3572 26.5491 54.5711 27.8538 55.3441 28.304C56.1915 28.798 57.0982 28.2925 57.4398 28.1037C57.7128 27.9511 57.8979 27.6745 57.9323 27.3636C57.9666 27.0527 57.8483 26.7399 57.6135 26.532C57.5353 26.4614 57.4551 26.3908 57.3749 26.3221C57.2719 26.2325 57.1688 26.1409 57.0638 26.0475C56.5885 25.624 56.3767 25.3627 56.4473 25.0289C56.5237 24.6703 56.9092 24.4281 57.3062 24.4853C58.3617 24.6398 58.8465 25.6812 59.316 26.6865C60.6693 29.5896 62.2974 32.4049 63.874 35.1287C66.0155 38.8291 68.2296 42.6554 69.7393 46.703C70.3062 48.2213 70.8483 50.0028 70.5811 51.7042C70.5467 51.9198 70.5028 52.1429 70.4589 52.368C70.2604 53.3809 70.0371 54.531 70.5696 55.439C70.7357 55.7213 71.0372 55.8872 71.3713 55.8815C71.6996 55.8719 71.9973 55.6869 72.1462 55.3951C72.4229 54.8591 72.4058 54.2392 72.3905 53.6403C72.3695 52.8353 72.3848 52.3241 72.7741 52.0285C72.9631 51.8854 73.2265 51.8282 73.4956 51.8721C74.2801 52.0018 74.7191 52.7571 74.9119 53.1958C75.6219 54.821 75.2268 56.5033 74.8069 58.2867C74.7019 58.7331 74.5931 59.1947 74.5053 59.6506C74.3717 60.3372 74.6351 60.6634 74.8794 60.816C75.097 60.9514 75.4673 61.0468 75.9941 60.7302C77.9505 59.5456 79.2636 57.2796 79.508 54.6665C79.6148 53.5144 79.5251 52.2784 79.2369 50.9928L79.2331 50.9889ZM51.6813 9.636C51.6928 9.61693 51.7081 9.59404 51.7252 9.56734C52.5269 8.4267 53.7465 7.61986 54.9261 6.84163L60.5605 3.12024C60.3925 3.37012 60.215 3.60664 60.0433 3.82981C58.7892 5.46256 57.373 6.98468 55.8289 8.35421C55.6934 8.47438 55.554 8.60599 55.409 8.74142C54.9814 9.14389 54.5386 9.55971 54.0844 9.79813C53.9832 9.85154 53.8839 9.89351 53.7904 9.92402C53.1338 10.1338 52.2864 9.88778 51.6813 9.63791V9.636ZM76.8053 54.6398C76.7366 53.8596 76.4293 53.1768 76.1315 52.5187C75.87 51.9369 75.5226 51.2846 74.9329 50.8402C74.4156 50.451 73.8354 50.2527 73.2284 50.2527C73.0452 50.2527 72.8619 50.2698 72.6749 50.308C72.5146 50.3404 72.36 50.3881 72.213 50.4415C72.1233 50.0276 72.0164 49.5374 71.9095 49.0491C71.7702 48.4101 71.6328 47.7768 71.5373 47.3343C71.5278 47.2561 71.5087 47.1703 71.482 47.0768C70.9628 45.3449 69.266 41.6883 68.4491 39.9297V39.924C68.4185 39.8534 68.388 39.7866 68.3517 39.7218C68.3365 39.6894 68.3155 39.655 68.2945 39.6207C67.657 38.5049 67.0233 37.3871 66.3915 36.2694C66.0289 35.6285 65.6681 34.9895 65.3036 34.3505C65.2368 34.2341 64.3645 32.7902 64.1736 32.506C63.601 31.5065 63.0322 30.507 62.4635 29.5056C62.0531 28.7846 61.6408 28.0617 61.2304 27.3407C61.177 27.2453 60.9728 26.8505 60.7743 26.4671C60.4021 25.7442 60.1234 25.2082 59.9994 24.9946L59.8886 24.7294C59.7302 24.348 59.5699 23.9646 59.4077 23.5793C59.2454 23.2035 58.8675 22.9555 58.4419 22.946L58.2758 22.9422C57.9246 22.9346 57.562 22.9269 57.1955 22.9594C56.2717 23.0433 55.5311 23.3237 54.9299 23.8139C54.5692 24.1095 54.3573 24.4853 54.3249 24.8839C54.3039 24.8611 54.2829 24.8382 54.2638 24.8153C54.2275 24.7752 54.1932 24.7352 54.1569 24.6951C53.7122 24.1801 53.7122 23.7776 54.1569 23.2588C54.6551 22.6771 55.1399 22.0705 55.6075 21.4849C55.7812 21.2675 55.9549 21.05 56.1286 20.8345C56.1858 20.7639 56.2354 20.6914 56.2774 20.6266C56.5866 20.3061 57.1612 19.6671 57.7166 19.0472C58.1785 18.5322 58.6556 18.0001 58.816 17.8398C59.776 16.8766 60.6979 16.0736 61.6332 15.385C61.6752 15.3526 61.7191 15.322 61.763 15.2915C61.9672 15.5719 62.16 15.837 62.3337 16.1098C62.6906 16.6668 63.0437 17.2447 63.3834 17.8017L63.7175 18.3472C63.8988 18.6696 65.0745 20.5808 65.1719 20.7124L65.5269 21.1893C65.9697 21.7863 66.4278 22.4043 66.8973 22.9994C66.9107 23.0147 66.9202 23.028 66.926 23.0395C66.9011 23.0814 66.8782 23.1234 66.8553 23.1654C66.8362 23.2016 66.8172 23.2378 66.7962 23.2703C66.0518 24.4071 65.9067 25.6641 66.3686 27.0088C67.0519 29.0002 67.8612 31.0239 68.8423 33.1946C68.9129 33.4674 69.1419 33.9614 69.6764 34.999C69.7222 35.0887 69.7584 35.1592 69.7794 35.1993C70.5238 36.6928 71.2987 38.1978 72.0488 39.655L72.3676 40.273C72.4783 40.4867 72.5947 40.6927 72.7322 40.9311C72.7455 40.9635 72.7589 40.994 72.7741 41.0265C72.9879 41.4862 73.2666 42.0584 73.5624 42.6649C73.9003 43.3612 74.2515 44.0783 74.4939 44.6124C74.6905 45.0435 74.8871 45.4727 75.0836 45.9018C75.7059 47.258 76.3491 48.6619 76.9446 50.0543C77.6394 51.6775 77.8646 53.3007 77.6146 54.8839C77.5707 55.0136 77.5077 55.252 77.3779 55.7556C77.3244 55.9654 77.2576 56.2248 77.2424 56.2744C77.0801 56.7227 76.8759 57.1614 76.6354 57.5829C76.7556 56.8829 76.7824 56.1771 76.8091 55.4905C76.8186 55.2177 76.8301 54.9354 76.8034 54.6417L76.8053 54.6398ZM43.1801 24.8057C43.2297 24.7695 43.266 24.7504 43.2889 24.7409C43.3022 24.7561 43.3213 24.7809 43.3442 24.8191C43.516 25.0995 43.5294 25.4733 43.5446 25.8701L43.5504 26.0246C43.5542 26.1009 43.537 26.1943 43.5179 26.2897C43.4969 26.3412 43.4817 26.4003 43.4759 26.469L43.4607 26.5377C43.0255 28.4794 42.3651 30.4574 41.9776 31.249C41.7028 31.8079 41.5462 32.1379 41.3019 32.7292C41.2542 32.8436 41.216 32.9523 41.1779 33.0668C41.0977 33.3033 40.9966 33.599 40.7236 34.1349C40.7026 34.175 40.6129 34.3142 40.5537 34.4058C40.5385 34.4306 40.5232 34.4535 40.5098 34.4745C40.5232 34.1483 40.5385 33.7878 40.5499 33.475C40.5614 33.1545 40.5747 32.8245 40.5805 32.7368C40.632 32.4469 40.6778 32.1531 40.7236 31.8613C40.8305 31.1803 40.9317 30.5375 41.0939 29.9043C41.2619 29.2539 41.7486 27.9549 42.1418 26.9096C42.3536 26.345 42.554 25.811 42.6819 25.4428C42.8422 25.1357 42.993 24.9431 43.1839 24.8076L43.1801 24.8057Z" fill="currentColor"/>
<path d="M42.0272 83.5754H45.9915V59.1603H42.0272V58.6606H48.7419C49.076 58.6606 49.4081 58.6549 49.7421 58.6434C50.0761 58.632 50.4082 58.6129 50.7422 58.59C51.0763 58.59 51.4026 58.5843 51.7252 58.5729C52.0459 58.5614 52.3742 58.5557 52.7082 58.5557C54.0652 58.5557 55.3212 58.7159 56.4759 59.0383C57.6307 59.3587 58.6308 59.8184 59.4763 60.4116C60.3219 61.0067 60.9823 61.7201 61.4595 62.5536C61.9347 63.3872 62.1733 64.3142 62.1733 65.3385C62.1733 66.3628 61.8985 67.3623 61.3526 68.1939C60.8048 69.0274 60.0776 69.7294 59.1748 70.2997C58.2701 70.87 57.2165 71.3106 56.014 71.6196C54.8115 71.9286 53.5556 72.0831 52.2463 72.0831C51.9123 72.0831 51.4847 72.0545 50.9598 71.9935C50.4349 71.9344 49.9711 71.8695 49.5665 71.797V83.5754H53.5308V84.0751H42.0291V83.5754H42.0272ZM49.5627 71.2973C50.0379 71.3926 50.538 71.4632 51.0629 71.5109C51.5859 71.5586 52.0516 71.5834 52.4562 71.5834C54.2179 71.5834 55.5941 71.0665 56.5809 70.0308C57.5696 68.995 58.0639 67.4309 58.0639 65.3366C58.0639 64.1235 57.9437 63.1125 57.707 62.3019C57.4684 61.4931 57.0943 60.8446 56.5828 60.3563C56.0713 59.868 55.4032 59.5304 54.5825 59.3396C53.7618 59.1489 52.7788 59.0535 51.6355 59.0535C51.1831 59.0535 50.7728 59.065 50.4025 59.0898C50.0322 59.1146 49.7535 59.1375 49.5627 59.1622V71.2973Z" fill="currentColor"/>
<path d="M61.8202 83.5754H64.5706V69.2621H61.8202V68.7623H67.5711V72.3673H67.6417C67.7371 72.0107 67.8917 71.6063 68.1055 71.1542C68.3193 70.7022 68.617 70.2673 68.9987 69.8515C69.3786 69.4356 69.8386 69.0847 70.373 68.7985C70.9074 68.5124 71.5564 68.3694 72.3198 68.3694C72.8676 68.3694 73.3429 68.459 73.7495 68.6364C74.1541 68.8157 74.4881 69.0408 74.7496 69.3155C75.0111 69.5901 75.202 69.9049 75.3203 70.2615C75.4386 70.6182 75.4997 70.9749 75.4997 71.3316C75.4997 72.1175 75.3203 72.6401 74.9634 72.9014C74.6064 73.1627 74.1884 73.2943 73.7132 73.2943C72.6653 73.2943 72.1423 72.9606 72.1423 72.2949C72.1423 72.0812 72.1652 71.9076 72.213 71.7779C72.2607 71.6482 72.3141 71.5166 72.3733 71.385C72.4325 71.2553 72.4859 71.1065 72.5336 70.9387C72.5813 70.7727 72.6042 70.5343 72.6042 70.2253C72.6042 69.4642 72.1881 69.0828 71.3541 69.0828C70.9723 69.0828 70.5677 69.2258 70.1401 69.5119C69.7107 69.798 69.3118 70.2139 68.9434 70.7613C68.5731 71.3087 68.2639 71.9687 68.0139 72.7431C67.7638 73.5175 67.6398 74.4026 67.6398 75.402V83.5754H70.7471V84.0751H61.8183V83.5754H61.8202Z" fill="currentColor"/>
<path d="M76.9999 76.4359C76.9999 75.2704 77.2557 74.187 77.7672 73.1875C78.2788 72.188 78.9334 71.3259 79.7313 70.5992C80.5291 69.8743 81.4223 69.3078 82.4091 68.9035C83.3978 68.4991 84.3674 68.2969 85.3199 68.2969C86.2723 68.2969 87.2419 68.4991 88.2306 68.9035C89.2193 69.3078 90.1107 69.8724 90.9085 70.5992C91.7063 71.3259 92.361 72.188 92.8725 73.1875C93.384 74.187 93.6398 75.2704 93.6398 76.4359C93.6398 77.6013 93.4012 78.6084 92.926 79.5946C92.4488 80.5826 91.8246 81.4448 91.0516 82.1829C90.2767 82.9211 89.3911 83.5029 88.3909 83.932C87.3908 84.3612 86.3677 84.5749 85.3199 84.5749C84.272 84.5749 83.249 84.3612 82.2488 83.932C81.2487 83.5029 80.3611 82.9211 79.5881 82.1829C78.8132 81.4448 78.189 80.5826 77.7138 79.5946C77.2366 78.6065 76.9999 77.5536 76.9999 76.4359ZM80.5711 76.4359C80.5711 78.1259 80.7009 79.4706 80.9643 80.4701C81.2258 81.4696 81.5712 82.2363 82.0007 82.7723C82.4301 83.3083 82.9302 83.6593 83.5009 83.8252C84.0716 83.9912 84.6805 84.0751 85.3218 84.0751C85.9631 84.0751 86.572 83.9912 87.1427 83.8252C87.7134 83.6593 88.2134 83.3083 88.6429 82.7723C89.0723 82.2363 89.4159 81.4696 89.6793 80.4701C89.9408 79.4706 90.0725 78.1259 90.0725 76.4359C90.0725 75.0072 89.977 73.8132 89.7862 72.848C89.5953 71.8848 89.3033 71.0989 88.912 70.4923C88.5188 69.8858 88.0245 69.4509 87.429 69.1896C86.8335 68.9283 86.1311 68.7966 85.3218 68.7966C84.5125 68.7966 83.8101 68.9283 83.2146 69.1896C82.6191 69.4509 82.1247 69.8858 81.7316 70.4923C81.3384 71.0989 81.0463 71.8848 80.8574 72.848C80.6665 73.8113 80.5711 75.0072 80.5711 76.4359Z" fill="currentColor"/>
<path d="M98.8887 83.5754H102.853V59.1603H100.782C100.305 59.1603 99.7705 59.2023 99.175 59.2843C98.5795 59.3682 97.9782 59.601 97.3713 59.9805C96.7643 60.362 96.1802 60.9629 95.621 61.783C95.0618 62.6032 94.5789 63.7401 94.1742 65.1916H93.781V58.6587H115.496V65.1916H115.103C114.698 63.7401 114.215 62.6032 113.656 61.783C113.097 60.9629 112.513 60.362 111.906 59.9805C111.299 59.601 110.698 59.3682 110.102 59.2843C109.507 59.2004 108.97 59.1603 108.495 59.1603H106.424V83.5754H110.388V84.0751H98.8868V83.5754H98.8887Z" fill="currentColor"/>
<path d="M117.603 75.2228C117.603 75.4612 117.598 75.7053 117.586 75.9552C117.575 76.2051 117.569 76.5198 117.569 76.9013C117.569 77.6871 117.617 78.5073 117.712 79.3638C117.807 80.2202 118.016 80.9946 118.336 81.6832C118.657 82.3737 119.134 82.944 119.766 83.3961C120.396 83.8481 121.235 84.0751 122.283 84.0751C123.331 84.0751 124.194 83.9206 124.873 83.6116C125.551 83.3026 126.087 82.9287 126.481 82.4881C126.874 82.0475 127.164 81.6012 127.355 81.1491C127.546 80.6971 127.689 80.3289 127.784 80.0428L128.32 80.1496C128.25 80.4109 128.112 80.7867 127.91 81.2731C127.708 81.7614 127.385 82.2497 126.946 82.7361C126.505 83.2244 125.91 83.6517 125.16 84.0217C124.41 84.3898 123.44 84.5749 122.249 84.5749C121.058 84.5749 119.957 84.3841 118.945 84.0045C117.933 83.625 117.057 83.0756 116.321 82.3622C115.582 81.6489 115.011 80.7982 114.607 79.8101C114.202 78.824 114 77.7215 114 76.5084C114 75.4612 114.208 74.4445 114.624 73.4565C115.04 72.4684 115.612 71.5948 116.338 70.8338C117.063 70.0727 117.914 69.4585 118.892 68.995C119.867 68.5315 120.915 68.2988 122.035 68.2988C122.701 68.2988 123.415 68.419 124.179 68.6555C124.94 68.8939 125.648 69.2792 126.303 69.8152C126.958 70.3512 127.505 71.0589 127.946 71.9382C128.387 72.8194 128.607 73.9143 128.607 75.2228H117.605H117.603ZM124.961 74.723C125.009 74.3892 125.032 74.0802 125.032 73.7941V72.9014C125.032 72.0927 124.954 71.427 124.799 70.9024C124.644 70.3798 124.429 69.9621 124.156 69.6531C123.881 69.3441 123.549 69.1247 123.156 68.9931C122.762 68.8634 122.339 68.7966 121.888 68.7966C121.079 68.7966 120.411 68.9569 119.888 69.2792C119.363 69.5997 118.947 70.0346 118.638 70.582C118.329 71.1294 118.096 71.7608 117.941 72.4742C117.786 73.1875 117.685 73.9371 117.638 74.723H124.959H124.961Z" fill="currentColor"/>
<path d="M146.178 80.1496C146.107 80.4109 145.97 80.7867 145.768 81.2731C145.565 81.7614 145.243 82.2497 144.804 82.7361C144.363 83.2244 143.767 83.6517 143.017 84.0217C142.267 84.3898 141.298 84.5749 140.107 84.5749C139.202 84.5749 138.261 84.4318 137.286 84.1457C136.308 83.8596 135.417 83.4018 134.608 82.7723C133.798 82.1429 133.136 81.3151 132.625 80.2908C132.113 79.2684 131.857 78.0057 131.857 76.5064C131.857 75.341 132.077 74.2576 132.518 73.2581C132.959 72.2586 133.554 71.3907 134.304 70.6526C135.054 69.9144 135.934 69.3384 136.948 68.9206C137.959 68.5048 139.038 68.295 140.181 68.295C140.824 68.295 141.485 68.3732 142.164 68.5277C142.842 68.6822 143.462 68.9206 144.021 69.2411C144.581 69.5615 145.044 69.9792 145.415 70.4904C145.783 71.0016 145.968 71.6273 145.968 72.3635C145.968 72.8633 145.808 73.2734 145.485 73.5957C145.165 73.9162 144.705 74.0783 144.111 74.0783C143.706 74.0783 143.319 73.9886 142.951 73.8113C142.58 73.632 142.397 73.3287 142.397 72.9014C142.397 72.5676 142.481 72.1633 142.647 71.6883C142.813 71.2134 142.897 70.8204 142.897 70.5114C142.897 69.964 142.622 69.5424 142.076 69.2449C141.529 68.9473 140.897 68.7986 140.183 68.7986C139.658 68.7986 139.118 68.8634 138.559 68.995C137.999 69.1266 137.488 69.4528 137.022 69.9773C136.558 70.5019 136.177 71.2858 135.879 72.333C135.581 73.3802 135.432 74.8088 135.432 76.6171C135.432 77.6414 135.497 78.6046 135.629 79.5087C135.759 80.4129 135.997 81.2044 136.343 81.8816C136.688 82.5606 137.163 83.0947 137.772 83.4876C138.379 83.8805 139.171 84.077 140.147 84.077C141.195 84.077 142.057 83.9225 142.737 83.6135C143.414 83.3045 143.951 82.9306 144.344 82.49C144.737 82.0494 145.027 81.6031 145.218 81.151C145.409 80.699 145.552 80.3308 145.647 80.0447L146.184 80.1515L146.178 80.1496Z" fill="currentColor"/>
<path d="M147.963 83.5754H150.713V58.8399H147.963V58.3401H153.784V72.3673H153.855C153.973 72.0583 154.175 71.6711 154.462 71.2076C154.748 70.7441 155.134 70.3035 155.622 69.8877C156.111 69.4719 156.706 69.1152 157.409 68.8176C158.111 68.5201 158.951 68.3713 159.926 68.3713C161.497 68.3713 162.778 68.7528 163.767 69.5138C164.753 70.2749 165.25 71.4899 165.25 73.1551V83.5773H168V84.077H159.428V83.5773H162.179V72.0488C162.179 71.1199 161.957 70.3588 161.518 69.7637C161.077 69.1686 160.394 68.871 159.464 68.871C158.703 68.871 157.976 69.0389 157.285 69.3708C156.594 69.7046 155.987 70.1681 155.464 70.7632C154.939 71.3583 154.529 72.0602 154.231 72.869C153.933 73.6777 153.784 74.559 153.784 75.5108V83.5773H156.535V84.077H147.963V83.5773V83.5754Z" fill="currentColor"/>
</g>
<defs>
<clipPath id="clip0_229_785">
<rect width="168" height="86" fill="white" transform="translate(0 0.371643)"/>
</clipPath>
</defs>
</svg>
