<svg width="16" height="16" viewBox="0 0 16 16" fill="none" xmlns="http://www.w3.org/2000/svg">
<path d="M8.0581 16C5.83611 16 3.94711 15.222 2.39111 13.666C0.835772 12.1107 0.0581055 10.222 0.0581055 8C0.0581055 6.35334 0.529106 4.84134 1.47111 3.464C2.41311 2.08667 3.74977 1.096 5.48111 0.492003C5.68511 0.420669 5.86377 0.402002 6.01711 0.436002C6.17111 0.469336 6.29811 0.535669 6.39811 0.635003C6.49811 0.734336 6.56177 0.861002 6.58911 1.015C6.61711 1.17034 6.59644 1.33334 6.52711 1.504C6.39777 1.822 6.30377 2.144 6.24511 2.47C6.18644 2.796 6.15744 3.13934 6.15811 3.5C6.15811 5.278 6.78011 6.789 8.02411 8.033C9.26877 9.27767 10.7801 9.9 12.5581 9.9C13.0234 9.9 13.4494 9.85067 13.8361 9.752C14.2228 9.65334 14.5518 9.57334 14.8231 9.512C14.9678 9.48534 15.1011 9.48867 15.2231 9.522C15.3431 9.556 15.4388 9.61467 15.5101 9.698C15.5894 9.78134 15.6428 9.884 15.6701 10.006C15.6981 10.1273 15.6824 10.2663 15.6231 10.423C15.1464 12.0563 14.2121 13.3943 12.8201 14.437C11.4288 15.479 9.84144 16 8.0581 16ZM8.0581 15C9.52477 15 10.8414 14.5957 12.0081 13.787C13.1748 12.9783 14.0248 11.9243 14.5581 10.625C14.2248 10.7083 13.8914 10.775 13.5581 10.825C13.2248 10.875 12.8914 10.9 12.5581 10.9C10.5081 10.9 8.7621 10.179 7.32011 8.737C5.87811 7.295 5.15744 5.54934 5.15811 3.5C5.15811 3.16667 5.1831 2.83334 5.23311 2.5C5.28311 2.16667 5.34977 1.83334 5.4331 1.5C4.13311 2.03334 3.07877 2.88334 2.27011 4.05C1.46144 5.21667 1.05744 6.53334 1.05811 8C1.05811 9.93334 1.74144 11.5833 3.10811 12.95C4.47477 14.3167 6.12477 15 8.0581 15Z" fill="white"/>
</svg>
