<svg width="103" height="33" viewBox="0 0 103 33" fill="none" xmlns="http://www.w3.org/2000/svg">
<g clip-path="url(#clip0_932_7865)">
<path d="M30.1987 19.422C30.1125 19.0348 29.9833 18.6378 29.8027 18.2087C29.297 17.0052 28.6705 15.8423 28.0634 14.7185C27.2798 13.2662 26.4685 11.7636 25.9239 10.1729C25.8072 9.83188 25.7182 9.48104 25.8572 9.21686C25.8738 9.18331 25.8975 9.14837 25.9211 9.11203C25.9878 9.00999 26.0628 8.89258 26.0795 8.74022C26.1031 8.51658 25.985 8.32648 25.9072 8.20068L24.1108 5.30729C24.875 4.72722 25.4237 3.84383 25.6266 2.85001C25.6266 2.8528 25.6266 2.8556 25.6266 2.8584C25.6377 2.94226 25.6516 3.0457 25.6529 3.06946C25.6627 3.37138 25.6529 3.67889 25.6224 3.98081C25.5585 4.62099 25.382 5.21085 25.2014 5.75458L25.157 5.89436L25.3862 6.07467L25.5099 5.99639C25.953 5.71404 26.1364 4.9229 26.2128 4.30928C26.2906 3.67889 26.2476 3.03591 26.1975 2.43068C26.1864 2.30208 26.1642 2.03371 25.9058 1.92049C25.7446 1.8492 25.5599 1.87297 25.4112 1.98339C25.1764 2.15811 25.125 2.42229 25.0833 2.63475L25.0736 2.68507C24.9027 3.53352 24.4193 4.30789 23.7385 4.83485C23.0967 4.28832 22.3145 3.9207 21.4893 3.77114C22.4826 2.90033 23.344 1.89533 24.0553 0.778511C24.2011 0.550674 24.1525 0.247358 23.9441 0.0894095C23.9219 0.0726363 23.8983 0.0572608 23.8761 0.0460786L23.8802 0.0237143L23.8594 0.037692C23.6329 -0.0685387 23.4176 0.0740341 23.3301 0.131343C21.9977 1.01054 20.6932 1.96662 19.4512 2.97162C19.2456 3.13795 19.1358 3.3602 19.1483 3.58384C19.1608 3.7963 19.2817 3.9864 19.4901 4.11919C19.5623 4.16531 19.6401 4.20026 19.7165 4.22542C19.4179 4.40713 19.0775 4.54271 18.7218 4.6154C18.7149 4.61679 18.7079 4.61819 18.7024 4.61959C18.7051 4.6126 18.7079 4.60561 18.7107 4.59722C18.7468 4.50497 18.7857 4.41132 18.8246 4.31767C18.9205 4.08983 19.0191 3.85361 19.083 3.6104L19.1289 3.43707L18.9663 3.36579C18.5898 3.20225 17.9897 3.20924 17.5493 3.21343C17.4979 3.21343 17.4492 3.21343 17.402 3.21343C16.8671 3.21623 16.3281 3.25956 15.8002 3.34342C14.8388 3.49578 13.8413 3.77953 12.8368 4.18768C10.4111 5.17171 8.05352 6.66593 6.19883 8.39497C5.65562 8.90096 4.42472 10.2288 4.35247 10.3197C4.29968 10.3854 4.2455 10.4497 4.18576 10.5168C4.1413 10.5685 4.09546 10.6202 4.05239 10.6733C3.73424 11.0605 3.4161 11.4477 3.09795 11.8349L2.76453 12.2416C2.63532 12.3982 2.17269 13.1222 2.12546 13.1991C1.44054 14.3089 0.604192 15.7794 0.208246 17.3016C-0.00431407 18.1193 -0.162692 19.3437 0.284657 20.536C0.431921 20.9288 0.661152 21.2922 0.894551 21.5075C1.07655 21.6738 1.23909 21.6878 1.34607 21.6668L1.35718 21.6864L1.36135 21.664C1.38219 21.6598 1.40025 21.6542 1.41553 21.6472C1.6795 21.548 1.81009 21.2014 1.84343 20.9092C1.96569 19.8651 2.33524 18.8503 2.91457 17.9739C2.98542 17.8663 3.07017 17.7489 3.1702 17.7153C3.27161 17.6818 3.39943 17.7251 3.54808 17.7754C3.8301 17.8719 4.258 18.0186 4.64561 17.5098C4.86373 17.2233 4.97487 16.8543 4.9582 16.4713C4.92208 15.5977 4.98738 14.7185 5.15409 13.8589C5.17493 13.7498 5.21661 13.6506 5.27496 13.5723C5.42917 13.364 5.57088 13.3822 5.85012 13.5094C7.40334 14.2097 8.8079 15.4943 9.91377 17.2219C10.9905 18.9062 11.6601 20.782 12.1727 22.3937C13.0911 25.2801 14.0066 29.0373 12.9285 32.4995C12.8813 32.6505 12.9243 32.8099 13.0369 32.9077C13.0994 32.9622 13.1758 32.9902 13.2522 32.9902C13.2828 32.9902 13.312 32.986 13.3425 32.9776C13.5245 32.9245 13.644 32.7288 13.6898 32.5764C14.5012 29.9235 15.3403 27.1796 15.3556 24.331C15.3611 23.2365 15.2444 22.1211 15.1305 21.042C14.9374 19.197 14.7526 17.4414 15.1152 15.7431C15.5668 16.8892 16.6448 17.7726 17.8757 17.9222C18.0939 17.9487 18.3148 17.9529 18.5273 17.9585C18.8566 17.9655 19.1664 17.9725 19.4609 18.0536C19.8569 18.1626 20.2209 18.4114 20.5543 18.6644C21.6796 19.5156 22.6702 20.5276 23.4996 21.6724C23.601 21.8122 23.6996 21.9534 23.7996 22.0959C24.2484 22.7375 24.7124 23.4015 25.3654 23.8655C25.4543 23.9284 25.5765 23.9158 25.6502 23.8348C25.7238 23.7537 25.7266 23.6293 25.6557 23.5468C25.1723 22.9737 24.7235 22.3517 24.2887 21.7493C23.8108 21.0867 23.3162 20.4018 22.7688 19.77C21.4712 18.273 20.0917 17.3924 18.6676 17.1506C18.5301 17.1269 18.3912 17.1101 18.2564 17.0933C17.9258 17.0514 17.6132 17.0122 17.327 16.8934C16.9727 16.7467 16.6407 16.4685 16.2836 16.0198C15.9224 15.5683 15.7265 15.1798 15.6654 14.7982C15.5556 14.1021 15.8807 13.4395 16.2267 12.7365C16.3225 12.5408 16.4212 12.3395 16.5087 12.1396C16.8769 11.2967 17.0686 10.3672 17.063 9.44889C17.063 9.25879 16.9852 9.08267 16.8532 8.96386C16.7268 8.85064 16.574 8.80731 16.4101 8.83527C16.1044 8.88838 15.8488 9.18192 15.721 9.41534C15.2097 10.3574 14.9749 11.3932 14.779 12.6568C14.4137 15.0134 14.2608 17.4162 14.3234 19.8008C14.3414 20.4689 14.3748 21.1538 14.4081 21.8164C14.5276 24.2303 14.6512 26.7156 14.0135 29.0009C13.9121 24.8775 12.6965 20.7471 10.5389 17.2485C9.17051 15.0302 7.76038 13.6883 6.10158 13.0244C5.87096 12.9321 5.63339 12.9014 5.4125 12.9363C4.5442 13.0719 4.47195 13.9693 4.43722 14.4012L4.22744 17.0025C4.22327 17.05 4.21216 17.0905 4.1941 17.1185C4.13714 17.2079 4.03711 17.1995 3.74814 17.1255C3.60921 17.0905 3.46472 17.0542 3.31885 17.0528C2.7284 17.0472 2.35608 17.6622 2.23382 17.8635C1.75868 18.6546 1.4072 19.5031 1.1863 20.3934C0.526392 18.512 1.36135 16.3092 2.23243 14.7269C3.99404 11.5232 6.55588 8.73742 9.64286 6.67012C11.3308 5.54072 13.8899 4.01855 16.6212 3.85361C17.1686 3.82006 17.5923 3.80049 17.9924 3.79071C18.1203 3.78791 18.2509 3.79351 18.3884 3.80189C18.3662 3.85361 18.3453 3.90672 18.3245 3.95844L18.2953 4.03113L18.2898 4.0493C18.2717 4.10521 18.1328 4.40014 18.08 4.51056C18.0536 4.56647 18.0327 4.6098 18.023 4.63077C17.9674 4.75378 17.9702 4.87957 18.0313 4.98441C18.123 5.13956 18.3259 5.22622 18.6524 5.24998C18.9774 5.27235 19.2039 5.13676 19.4248 5.00398C19.4818 4.97043 19.5401 4.93409 19.6012 4.90194C20.175 4.59443 20.9322 4.26316 21.6824 4.42949C22.2437 4.55389 22.723 4.93688 23.1509 5.31428C22.1256 6.2424 21.1725 7.26278 20.3139 8.34884C19.9986 8.74861 19.7332 9.23503 20.1681 9.81091C20.3334 10.0304 20.796 10.5308 21.0905 10.7041C21.4142 10.8942 21.7588 10.6999 21.8894 10.6272C21.9936 10.5685 22.063 10.4623 22.0769 10.3435C22.0908 10.2233 22.045 10.1044 21.9561 10.0248C21.9255 9.99821 21.8949 9.97026 21.8658 9.9437C21.8269 9.90876 21.7866 9.87381 21.7477 9.83747C21.5671 9.67533 21.4851 9.57469 21.5129 9.44749C21.5421 9.31051 21.6893 9.21686 21.8408 9.23922C22.2437 9.29933 22.4284 9.69769 22.6063 10.0835C23.1217 11.1975 23.7427 12.278 24.3429 13.3221C25.1584 14.7423 26.003 16.2099 26.5782 17.7628C26.7935 18.3457 27.0006 19.0292 26.8991 19.682C26.8866 19.7644 26.87 19.8497 26.8533 19.9364C26.7783 20.325 26.6921 20.7666 26.8964 21.1147C26.9589 21.2223 27.0742 21.2866 27.202 21.2838C27.327 21.2796 27.441 21.2083 27.4965 21.0979C27.6021 20.8925 27.5952 20.6548 27.5896 20.4242C27.5813 20.1153 27.5868 19.9196 27.7355 19.805C27.8077 19.7491 27.9078 19.7281 28.0106 19.7449C28.3093 19.7952 28.4774 20.0845 28.5496 20.2537C28.8205 20.8771 28.6691 21.5228 28.5093 22.2064C28.469 22.3783 28.4273 22.5544 28.394 22.7291C28.3426 22.9933 28.444 23.1177 28.5371 23.1764C28.6205 23.2281 28.7608 23.2659 28.9622 23.1429C29.7083 22.6886 30.2084 21.8192 30.3015 20.8156C30.3432 20.3725 30.3084 19.8986 30.1987 19.4066V19.422ZM19.6971 3.55449C19.7013 3.5475 19.7068 3.53771 19.7138 3.52793C20.0194 3.09043 20.4848 2.78012 20.9336 2.4824L23.0814 1.05387C23.0175 1.14892 22.9494 1.23978 22.8841 1.32644C22.4062 1.95264 21.8658 2.53691 21.2781 3.06247C21.2267 3.1086 21.1725 3.15892 21.1183 3.21063C20.9558 3.36439 20.7863 3.52513 20.6126 3.61599C20.5737 3.63696 20.5362 3.65233 20.5001 3.66351C20.25 3.74458 19.9277 3.64953 19.6971 3.55309V3.55449ZM29.272 20.8226C29.2456 20.5234 29.1289 20.2621 29.015 20.0091C28.915 19.7854 28.783 19.5352 28.5579 19.3647C28.3607 19.2151 28.1398 19.1396 27.9091 19.1396C27.8397 19.1396 27.7688 19.1466 27.698 19.1606C27.6368 19.1732 27.5785 19.1914 27.5215 19.2123C27.4882 19.0544 27.4465 18.8657 27.4062 18.6784C27.3534 18.4338 27.3006 18.1906 27.2645 18.02C27.2603 17.9893 27.2534 17.9571 27.2437 17.9208C27.0464 17.2568 26.399 15.8535 26.0878 15.1784C26.0767 15.149 26.0656 15.1238 26.0517 15.0987C26.0461 15.0861 26.0378 15.0735 26.0294 15.0595C25.7863 14.6318 25.5446 14.2027 25.3042 13.7736C25.1667 13.5276 25.0278 13.283 24.8902 13.037C24.8652 12.9922 24.5318 12.4387 24.4596 12.3297C24.2414 11.9467 24.0247 11.5623 23.808 11.1779C23.651 10.9012 23.494 10.6244 23.3384 10.3477C23.3176 10.3113 23.2398 10.159 23.1647 10.0122C23.023 9.73543 22.9161 9.52856 22.8688 9.44749L22.8271 9.34546C22.766 9.19869 22.7063 9.05192 22.6438 8.90376C22.5826 8.75979 22.4381 8.66474 22.2756 8.66055H22.2117C22.0783 8.65635 21.9394 8.65356 21.8005 8.66614C21.449 8.69829 21.1656 8.80591 20.9363 8.99461C20.7988 9.10783 20.7182 9.2518 20.7057 9.40556C20.6974 9.39717 20.6904 9.38739 20.6821 9.379C20.6682 9.36363 20.6557 9.34825 20.6418 9.33287C20.4723 9.13579 20.4723 8.98064 20.6418 8.78215C20.8321 8.55851 21.0169 8.32648 21.1947 8.10144C21.2614 8.01757 21.3267 7.9351 21.3934 7.85124C21.4156 7.82468 21.4337 7.79672 21.4504 7.77156C21.5685 7.64856 21.7866 7.40395 21.9991 7.16633C22.1756 6.96924 22.3576 6.76377 22.4187 6.70227C22.7855 6.33186 23.1356 6.02435 23.4926 5.76017C23.5093 5.74759 23.526 5.73641 23.5426 5.72383C23.6204 5.83146 23.6941 5.93349 23.7607 6.03833C23.8969 6.25219 24.0317 6.47303 24.1609 6.68829L24.2887 6.89796C24.3581 7.02096 24.8055 7.75479 24.843 7.80511L24.9778 7.98822C25.1459 8.21745 25.3209 8.45368 25.5001 8.68291C25.5043 8.6885 25.5085 8.69409 25.5112 8.69829C25.5015 8.71366 25.4932 8.73044 25.4848 8.74721C25.4779 8.76119 25.471 8.77516 25.4626 8.78774C25.1792 9.22385 25.1236 9.70608 25.3001 10.2219C25.5599 10.9864 25.8683 11.7622 26.242 12.5953C26.2684 12.7001 26.3559 12.8888 26.5601 13.2872C26.5782 13.3221 26.5921 13.3487 26.5991 13.364C26.8825 13.9371 27.1784 14.5144 27.4646 15.0735L27.5854 15.3097C27.6271 15.3922 27.6716 15.4705 27.7244 15.5627C27.7299 15.5753 27.7341 15.5865 27.7397 15.5991C27.8202 15.7752 27.9272 15.9947 28.0397 16.2281C28.1689 16.4951 28.3023 16.7704 28.3954 16.9759C28.4704 17.1408 28.5454 17.3058 28.6205 17.4707C28.858 17.9921 29.1025 18.5302 29.329 19.0642C29.593 19.6862 29.6791 20.3096 29.5846 20.9176C29.5679 20.9679 29.5443 21.0588 29.4943 21.2517C29.4735 21.3313 29.4485 21.432 29.4429 21.4516C29.3804 21.6235 29.304 21.7926 29.2123 21.9534C29.2581 21.685 29.2679 21.4138 29.279 21.1496C29.2831 21.0448 29.2873 20.9358 29.2776 20.824L29.272 20.8226ZM16.4559 9.37481C16.4754 9.36083 16.4879 9.35384 16.4976 9.34965C16.5031 9.35524 16.5101 9.36502 16.5184 9.379C16.5837 9.48663 16.5893 9.6306 16.5948 9.78156L16.5976 9.84027C16.5976 9.86962 16.5934 9.90596 16.5851 9.9423C16.5768 9.96187 16.5712 9.98424 16.5698 10.0108L16.5643 10.0374C16.3989 10.7824 16.1461 11.5414 15.9988 11.8461C15.8946 12.0613 15.8349 12.1871 15.7404 12.4136C15.7224 12.4569 15.7085 12.4988 15.6932 12.5436C15.6626 12.6344 15.6237 12.7476 15.5209 12.9531C15.5126 12.9685 15.4792 13.0216 15.457 13.0565C15.4515 13.0663 15.4459 13.0747 15.4403 13.0831C15.4459 12.9573 15.4515 12.8189 15.4556 12.7001C15.4598 12.5771 15.4653 12.4499 15.4667 12.4164C15.4862 12.3045 15.5042 12.1927 15.5209 12.0809C15.5612 11.8195 15.6001 11.5735 15.6626 11.3303C15.7265 11.0801 15.9127 10.5825 16.0613 10.1813C16.1419 9.96467 16.2183 9.7592 16.267 9.61802C16.3281 9.50061 16.385 9.42653 16.4587 9.37341L16.4559 9.37481Z" fill="#231F20"/>
<path d="M34.1208 23.1709H36.2881V9.73129H34.1208V9.45593H37.7927C37.9747 9.45593 38.1567 9.45314 38.34 9.44615C38.522 9.43916 38.704 9.42937 38.8874 9.41679C39.0694 9.41679 39.2486 9.414 39.4251 9.40701C39.6015 9.40002 39.7793 9.39722 39.9627 9.39722C40.7046 9.39722 41.3909 9.48528 42.023 9.6628C42.6538 9.84032 43.2011 10.0919 43.6638 10.419C44.1264 10.7461 44.4876 11.1388 44.7474 11.5973C45.0072 12.0558 45.1378 12.5674 45.1378 13.1293C45.1378 13.6912 44.9878 14.2433 44.6891 14.7018C44.389 15.1602 43.993 15.546 43.4984 15.8605C43.0039 16.175 42.4273 16.4168 41.7702 16.5874C41.113 16.7579 40.4253 16.8432 39.7099 16.8432C39.5279 16.8432 39.2931 16.8264 39.0069 16.7942C38.7207 16.7621 38.4665 16.7257 38.2456 16.6866V23.1709H40.4128V23.4462H34.125V23.1709H34.1208ZM38.2414 16.4112C38.5012 16.4644 38.7749 16.5035 39.0611 16.5287C39.3473 16.5552 39.6015 16.5678 39.8224 16.5678C40.7852 16.5678 41.5382 16.2826 42.0786 15.7124C42.619 15.1421 42.8885 14.281 42.8885 13.1279C42.8885 12.4597 42.8233 11.9034 42.6927 11.4575C42.5621 11.013 42.3578 10.6552 42.0772 10.3868C41.7966 10.1185 41.4326 9.93257 40.9838 9.82634C40.5351 9.72151 39.9975 9.66979 39.3723 9.66979C39.125 9.66979 38.8999 9.67678 38.6985 9.68936C38.497 9.70194 38.3442 9.71592 38.24 9.7285V16.4084L38.2414 16.4112Z" fill="#231F20"/>
<path d="M44.9433 23.1709H46.4465V15.2916H44.9433V15.0163H48.0872V17.0011H48.1261C48.1775 16.804 48.2623 16.5818 48.3804 16.333C48.4971 16.0842 48.6596 15.8451 48.868 15.6159C49.0764 15.3867 49.3265 15.1938 49.6196 15.0358C49.9127 14.8779 50.267 14.7996 50.6838 14.7996C50.9825 14.7996 51.2437 14.8485 51.4646 14.9464C51.6855 15.0442 51.8675 15.1686 52.012 15.3196C52.155 15.4705 52.2592 15.6439 52.3245 15.841C52.3898 16.038 52.4218 16.2337 52.4218 16.4308C52.4218 16.8627 52.3245 17.1507 52.1287 17.296C51.9328 17.44 51.7049 17.5127 51.4451 17.5127C50.8727 17.5127 50.5865 17.3296 50.5865 16.962C50.5865 16.8446 50.5991 16.7495 50.6254 16.6768C50.6518 16.6055 50.681 16.5329 50.713 16.4602C50.7449 16.3889 50.7741 16.3064 50.8005 16.2142C50.8269 16.1233 50.8394 15.9919 50.8394 15.8214C50.8394 15.4021 50.6116 15.1924 50.1559 15.1924C49.9475 15.1924 49.7266 15.2707 49.4918 15.4286C49.257 15.5852 49.0389 15.8144 48.8374 16.1163C48.636 16.4182 48.4665 16.7817 48.3304 17.2066C48.1942 17.6329 48.1247 18.1207 48.1247 18.67V23.1695H49.8238V23.4448H44.9419V23.1695L44.9433 23.1709Z" fill="#231F20"/>
<path d="M53.2429 19.2403C53.2429 18.5988 53.3832 18.0019 53.6624 17.4526C53.9417 16.9019 54.3001 16.428 54.7363 16.0283C55.1726 15.6285 55.6602 15.3182 56.2006 15.0945C56.7411 14.8723 57.2718 14.7605 57.7928 14.7605C58.3137 14.7605 58.8444 14.8723 59.3849 15.0945C59.9253 15.3168 60.4129 15.6285 60.8492 16.0283C61.2854 16.428 61.6439 16.9033 61.9231 17.4526C62.2023 18.0033 62.3427 18.5988 62.3427 19.2403C62.3427 19.8819 62.2121 20.4354 61.9523 20.9792C61.6911 21.5229 61.3493 21.9981 60.927 22.4035C60.5032 22.8102 60.0184 23.1303 59.4724 23.3666C58.925 23.6028 58.3651 23.7202 57.7928 23.7202C57.2204 23.7202 56.6605 23.6028 56.1131 23.3666C55.5657 23.1303 55.0809 22.8102 54.6585 22.4035C54.2348 21.9981 53.893 21.5229 53.6332 20.9792C53.3721 20.4354 53.2429 19.8554 53.2429 19.2403ZM55.1962 19.2403C55.1962 20.1712 55.267 20.9107 55.4115 21.46C55.5546 22.0107 55.7436 22.4328 55.9784 22.7278C56.2131 23.0227 56.4854 23.2156 56.798 23.3078C57.1106 23.4001 57.4427 23.4448 57.7941 23.4448C58.1456 23.4448 58.4777 23.3987 58.7903 23.3078C59.1029 23.2156 59.3765 23.0227 59.6099 22.7278C59.8433 22.4328 60.0323 22.0107 60.1768 21.46C60.3199 20.9093 60.3921 20.1699 60.3921 19.2403C60.3921 18.4548 60.3393 17.7964 60.2365 17.2653C60.1323 16.7341 59.9725 16.3022 59.7586 15.9681C59.5433 15.6341 59.2737 15.3951 58.9486 15.2511C58.6236 15.1071 58.2387 15.0344 57.7969 15.0344C57.3551 15.0344 56.9703 15.1071 56.6452 15.2511C56.3201 15.3951 56.0492 15.6341 55.8353 15.9681C55.6199 16.3022 55.4602 16.7341 55.3573 17.2653C55.2532 17.7964 55.2017 18.4534 55.2017 19.2403H55.1962Z" fill="#231F20"/>
<path d="M65.2102 23.1709H67.3775V9.73129H66.2452C65.984 9.73129 65.6923 9.75365 65.3658 9.79978C65.0407 9.84591 64.7114 9.9731 64.3794 10.1828C64.0473 10.3924 63.7278 10.7237 63.4222 11.1752C63.1165 11.6267 62.8526 12.2529 62.6317 13.051H62.4163V9.45593H74.2905V13.051H74.0766C73.8557 12.2515 73.5917 11.6267 73.2861 11.1752C72.9804 10.7237 72.6609 10.3924 72.3289 10.1828C71.9968 9.9731 71.6676 9.84591 71.3425 9.79978C71.0174 9.75365 70.7242 9.73129 70.463 9.73129H69.3308V23.1709H71.4981V23.4462H65.2102V23.1709Z" fill="#231F20"/>
<path d="M75.4436 18.5722C75.4436 18.7036 75.4408 18.8378 75.4339 18.9748C75.4269 19.1117 75.4242 19.2865 75.4242 19.4961C75.4242 19.928 75.4506 20.3809 75.502 20.852C75.5534 21.323 75.6673 21.7493 75.8437 22.1295C76.0202 22.5097 76.2799 22.8242 76.6245 23.073C76.969 23.3218 77.4289 23.4462 78.0013 23.4462C78.5737 23.4462 79.046 23.361 79.417 23.1904C79.7879 23.0199 80.081 22.8144 80.2964 22.5712C80.5117 22.3294 80.6701 22.0834 80.7743 21.8346C80.8785 21.5858 80.9563 21.3831 81.0091 21.2252L81.3022 21.2839C81.2633 21.4278 81.1883 21.6347 81.0771 21.9031C80.966 22.1715 80.7909 22.4398 80.5506 22.7082C80.3089 22.9766 79.9838 23.2128 79.5739 23.4155C79.1641 23.6182 78.6334 23.7202 77.9818 23.7202C77.3302 23.7202 76.7287 23.6154 76.1758 23.4057C75.6228 23.196 75.1435 22.8955 74.7406 22.5013C74.3363 22.1086 74.0251 21.6403 73.8029 21.0966C73.582 20.5528 73.4708 19.9476 73.4708 19.2795C73.4708 18.7036 73.5847 18.1431 73.8126 17.5993C74.0404 17.0556 74.353 16.5748 74.7503 16.1555C75.1477 15.7361 75.6131 15.3993 76.1466 15.1435C76.6801 14.8877 77.2524 14.7605 77.8651 14.7605C78.2291 14.7605 78.6195 14.8262 79.0363 14.9576C79.4531 15.089 79.8407 15.3014 80.1977 15.5963C80.5562 15.8913 80.8549 16.2812 81.0966 16.7649C81.3369 17.2499 81.4578 17.8523 81.4578 18.5722H75.4422H75.4436ZM79.467 18.2968C79.4934 18.1137 79.5059 17.9432 79.5059 17.7867V17.296C79.5059 16.8501 79.4628 16.4839 79.3794 16.196C79.2947 15.908 79.178 15.6788 79.028 15.5083C78.8779 15.3378 78.6959 15.2175 78.4806 15.1449C78.2652 15.0736 78.0346 15.0372 77.7873 15.0372C77.3441 15.0372 76.9801 15.1253 76.694 15.3028C76.4078 15.4803 76.1799 15.7193 76.0104 16.0199C75.8409 16.3218 75.7145 16.6684 75.6298 17.0612C75.545 17.454 75.4894 17.8663 75.4631 18.2996H79.467V18.2968Z" fill="#231F20"/>
<path d="M91.0675 21.2839C91.0286 21.4278 90.9535 21.6347 90.8424 21.9031C90.7313 22.1715 90.5562 22.4398 90.3159 22.7082C90.0741 22.9766 89.749 23.2128 89.3392 23.4155C88.9294 23.6182 88.3987 23.7202 87.7471 23.7202C87.2525 23.7202 86.7385 23.6419 86.2036 23.484C85.6701 23.3274 85.1811 23.0744 84.7393 22.7278C84.2961 22.3811 83.9349 21.9255 83.6556 21.3622C83.375 20.7988 83.2361 20.1042 83.2361 19.2795C83.2361 18.6379 83.3569 18.041 83.5973 17.4917C83.8376 16.941 84.1641 16.463 84.574 16.0576C84.9838 15.6523 85.4659 15.3336 86.0188 15.1043C86.5717 14.8751 87.1608 14.7605 87.786 14.7605C88.1375 14.7605 88.4987 14.8038 88.8696 14.8877C89.2406 14.9729 89.5795 15.1043 89.8852 15.2804C90.1908 15.458 90.4451 15.6872 90.6465 15.9681C90.848 16.2505 90.9494 16.5944 90.9494 16.9997C90.9494 17.2751 90.8619 17.5015 90.6854 17.6776C90.5104 17.8551 90.2589 17.9432 89.9338 17.9432C89.7129 17.9432 89.5004 17.8943 89.2989 17.7964C89.0975 17.6986 88.9961 17.5309 88.9961 17.296C88.9961 17.1129 89.0419 16.8907 89.1322 16.6279C89.2225 16.3665 89.2683 16.1499 89.2683 15.9793C89.2683 15.6788 89.1183 15.4454 88.8196 15.2818C88.5195 15.1183 88.175 15.0358 87.7846 15.0358C87.4984 15.0358 87.2011 15.0722 86.8954 15.1435C86.5898 15.2161 86.3092 15.3965 86.0563 15.6844C85.8021 15.9723 85.5937 16.4043 85.4311 16.9815C85.2686 17.5574 85.1866 18.3444 85.1866 19.3396C85.1866 19.9029 85.2228 20.434 85.2936 20.9316C85.3645 21.4292 85.4951 21.8654 85.684 22.2386C85.8729 22.6118 86.1327 22.9067 86.4648 23.1233C86.7968 23.34 87.2289 23.4476 87.7638 23.4476C88.3361 23.4476 88.8085 23.3624 89.1794 23.1918C89.5504 23.0213 89.8435 22.8158 90.0588 22.5726C90.2742 22.3308 90.4326 22.0848 90.5368 21.836C90.641 21.5872 90.7188 21.3845 90.7716 21.2266L91.0647 21.2853L91.0675 21.2839Z" fill="#231F20"/>
<path d="M92.0428 23.1709H93.546V9.55377H92.0428V9.27841H95.2256V16.9997H95.2645C95.3298 16.8292 95.4409 16.6167 95.5965 16.3609C95.7521 16.1051 95.9647 15.8633 96.2314 15.6341C96.4982 15.4048 96.8233 15.2092 97.2081 15.0442C97.5916 14.8807 98.0514 14.7982 98.5849 14.7982C99.4435 14.7982 100.144 15.0079 100.684 15.4272C101.225 15.8465 101.494 16.5147 101.494 17.4316V23.1695H102.997V23.4448H98.3098V23.1695H99.813V16.8236C99.813 16.312 99.6921 15.8941 99.4518 15.5656C99.2101 15.2385 98.8363 15.075 98.3293 15.075C97.9125 15.075 97.5151 15.1672 97.1386 15.3503C96.7608 15.5334 96.4287 15.7892 96.1425 16.1163C95.8563 16.4434 95.6313 16.8306 95.4687 17.2751C95.3062 17.721 95.2242 18.206 95.2242 18.7288V23.1695H96.7274V23.4448H92.04V23.1695L92.0428 23.1709Z" fill="#231F20"/>
</g>
<defs>
<clipPath id="clip0_932_7865">
<rect width="103" height="33" fill="white"/>
</clipPath>
</defs>
</svg>
