<svg width="24" height="25" viewBox="0 0 24 25" fill="none" xmlns="http://www.w3.org/2000/svg">
<g clip-path="url(#clip0_637_550)">
<path d="M20 11.8934H12.6667V4.5601C12.6667 4.38329 12.5964 4.21372 12.4714 4.08869C12.3464 3.96367 12.1768 3.89343 12 3.89343C11.8232 3.89343 11.6536 3.96367 11.5286 4.08869C11.4036 4.21372 11.3333 4.38329 11.3333 4.5601V11.8934H3.99999C3.82318 11.8934 3.65361 11.9637 3.52858 12.0887C3.40356 12.2137 3.33332 12.3833 3.33332 12.5601C3.33003 12.6467 3.34535 12.7331 3.37825 12.8133C3.41115 12.8935 3.46086 12.9658 3.52404 13.0252C3.58722 13.0845 3.66239 13.1297 3.74449 13.1576C3.82659 13.1854 3.91371 13.1954 3.99999 13.1868H11.3333V20.5601C11.3333 20.7369 11.4036 20.9065 11.5286 21.0315C11.6536 21.1565 11.8232 21.2268 12 21.2268C12.1768 21.2268 12.3464 21.1565 12.4714 21.0315C12.5964 20.9065 12.6667 20.7369 12.6667 20.5601V13.2268H20C20.1768 13.2268 20.3464 13.1565 20.4714 13.0315C20.5964 12.9065 20.6667 12.7369 20.6667 12.5601C20.6667 12.3833 20.5964 12.2137 20.4714 12.0887C20.3464 11.9637 20.1768 11.8934 20 11.8934Z" fill="black"/>
</g>
<defs>
<clipPath id="clip0_637_550">
<rect width="24" height="24" fill="white" transform="translate(0 0.560059)"/>
</clipPath>
</defs>
</svg>
