<svg width="129" height="92" viewBox="0 0 129 92" fill="none" xmlns="http://www.w3.org/2000/svg">
<path d="M5.01058 90.9921V78.8184H0.662842V76.3388H12.308V78.8184H7.96949V90.9921H5.01058Z" fill="#231F20"/>
<path d="M15.7677 76.3357V81.725C16.6741 80.665 17.7557 80.1365 19.0155 80.1365C19.6607 80.1365 20.2445 80.2563 20.7638 80.496C21.2831 80.7357 21.6763 81.0429 21.9375 81.4147C22.2018 81.7865 22.38 82.2013 22.4783 82.653C22.5735 83.1077 22.6227 83.8083 22.6227 84.7638V90.992H19.8144V85.3845C19.8144 84.2722 19.7621 83.5655 19.6546 83.2644C19.547 82.9633 19.3596 82.7267 19.0892 82.5485C18.8188 82.3703 18.4808 82.2843 18.0753 82.2843C17.6082 82.2843 17.1934 82.3979 16.8247 82.6253C16.456 82.8527 16.1887 83.1937 16.0197 83.6485C15.8507 84.1063 15.7647 84.7792 15.7647 85.6733V90.992H12.9563V76.3388H15.7647L15.7677 76.3357Z" fill="#231F20"/>
<path d="M30.5961 87.6121L33.3952 88.0822C33.0358 89.1085 32.4673 89.8889 31.69 90.4266C30.9126 90.9643 29.9416 91.2317 28.7771 91.2317C26.9305 91.2317 25.5663 90.6294 24.6783 89.4219C23.9777 88.4571 23.6274 87.2373 23.6274 85.7624C23.6274 84.0018 24.0883 82.6253 25.007 81.6298C25.9258 80.6342 27.0903 80.1365 28.4944 80.1365C30.0738 80.1365 31.3212 80.6588 32.2338 81.7004C33.1464 82.7421 33.5827 84.3398 33.5427 86.4937H26.5065C26.528 87.3264 26.7523 87.9747 27.1855 88.4387C27.6188 88.9026 28.1595 89.1331 28.8048 89.1331C29.2442 89.1331 29.6129 89.0132 29.914 88.7736C30.2151 88.5339 30.4394 88.1468 30.593 87.6152L30.5961 87.6121ZM30.7559 84.773C30.7374 83.9588 30.5254 83.3412 30.126 82.9172C29.7266 82.4932 29.2411 82.2812 28.6665 82.2812C28.052 82.2812 27.5481 82.5055 27.1486 82.951C26.7492 83.3965 26.5526 84.0049 26.5587 84.77H30.7559V84.773Z" fill="#231F20"/>
<path d="M37.5003 90.992H34.6919V80.3762H37.3005V81.8848C37.7461 81.172 38.1486 80.7019 38.505 80.4745C38.8614 80.2471 39.267 80.1334 39.7187 80.1334C40.3578 80.1334 40.9754 80.3116 41.5684 80.6619L40.6988 83.1108C40.2257 82.8035 39.7863 82.6499 39.3807 82.6499C38.9751 82.6499 38.6556 82.7574 38.3821 82.9756C38.1086 83.1937 37.8935 83.584 37.7368 84.1493C37.5801 84.7147 37.5033 85.9038 37.5033 87.7074V90.9859L37.5003 90.992Z" fill="#231F20"/>
<path d="M42.1584 80.3761H44.7487V81.8264C45.6735 80.6988 46.7766 80.1365 48.0578 80.1365C48.7369 80.1365 49.3268 80.2778 49.8277 80.5574C50.3285 80.837 50.7372 81.261 51.0567 81.8264C51.5237 81.261 52.0277 80.837 52.5654 80.5574C53.1061 80.2778 53.6807 80.1365 54.2952 80.1365C55.0757 80.1365 55.7363 80.2963 56.274 80.6127C56.8117 80.9292 57.2173 81.3932 57.4846 82.0077C57.6782 82.4624 57.7734 83.1937 57.7734 84.2077V90.9951H54.9651V84.9267C54.9651 83.8728 54.8698 83.1937 54.6762 82.8865C54.4151 82.487 54.0156 82.2873 53.4779 82.2873C53.0846 82.2873 52.7159 82.4071 52.3687 82.6468C52.0215 82.8865 51.7726 83.2367 51.619 83.7007C51.4654 84.1647 51.3886 84.8959 51.3886 85.8945V90.992H48.5802V85.1756C48.5802 84.1432 48.531 83.4764 48.4296 83.1753C48.3282 82.8742 48.1746 82.6529 47.9657 82.5055C47.7567 82.358 47.471 82.2842 47.1115 82.2842C46.6782 82.2842 46.288 82.401 45.9408 82.6345C45.5936 82.868 45.3447 83.2029 45.1973 83.6454C45.0467 84.0848 44.973 84.8161 44.973 85.8331V90.992H42.1646V80.3761H42.1584Z" fill="#231F20"/>
<path d="M61.6478 83.6147L59.0976 83.1538C59.3833 82.1275 59.878 81.3686 60.5755 80.8739C61.276 80.3792 62.3146 80.1334 63.6942 80.1334C64.9478 80.1334 65.8788 80.2809 66.4933 80.5789C67.1078 80.8739 67.538 81.2519 67.7869 81.7097C68.0358 82.1675 68.1617 83.0032 68.1617 84.2231L68.131 87.5015C68.131 88.4356 68.1771 89.1239 68.2662 89.5663C68.3553 90.0088 68.5243 90.485 68.7701 90.992H65.9925C65.9187 90.8046 65.8296 90.528 65.7221 90.1624C65.676 89.9965 65.6422 89.8859 65.6207 89.8336C65.1414 90.3007 64.6282 90.6509 64.0813 90.8845C63.5344 91.118 62.9506 91.2347 62.333 91.2347C61.2392 91.2347 60.3788 90.9398 59.749 90.3437C59.1191 89.7507 58.8057 89.001 58.8057 88.0945C58.8057 87.4954 58.9501 86.9607 59.2358 86.4906C59.5216 86.0205 59.9241 85.661 60.4403 85.4122C60.9565 85.1633 61.7001 84.9451 62.6741 84.7577C63.9861 84.5119 64.8956 84.2814 65.4025 84.0694V83.7898C65.4025 83.249 65.2704 82.865 65.0031 82.6345C64.7358 82.4041 64.2319 82.2904 63.4945 82.2904C62.9936 82.2904 62.6034 82.3887 62.3238 82.5854C62.0442 82.782 61.8168 83.1261 61.6448 83.6208L61.6478 83.6147ZM65.4056 85.8946C65.0461 86.0144 64.4746 86.1588 63.6972 86.3247C62.9168 86.4906 62.4068 86.6535 62.1671 86.8133C61.8015 87.0744 61.6171 87.4032 61.6171 87.8026C61.6171 88.2021 61.7646 88.537 62.0565 88.8227C62.3484 89.1085 62.7232 89.2529 63.1749 89.2529C63.6819 89.2529 64.1643 89.087 64.6252 88.7521C64.9662 88.5001 65.1875 88.1898 65.295 87.8211C65.3687 87.5814 65.4056 87.1236 65.4056 86.4507V85.8915V85.8946Z" fill="#231F20"/>
<path d="M72.6232 90.9921L69.1235 76.3388H72.1531L74.3623 86.4047L77.0416 76.3388H80.5598L83.1285 86.5736L85.3776 76.3388H88.355L84.7969 90.9921H81.6567L78.7377 80.0351L75.828 90.9921H72.6202H72.6232Z" fill="#231F20"/>
<path d="M94.1899 87.6121L96.989 88.0822C96.6295 89.1085 96.0611 89.8889 95.2837 90.4266C94.5063 90.9643 93.5354 91.2317 92.3709 91.2317C90.5242 91.2317 89.16 90.6294 88.272 89.4219C87.5715 88.4571 87.2212 87.2373 87.2212 85.7624C87.2212 84.0018 87.6821 82.6253 88.6008 81.6298C89.5195 80.6342 90.684 80.1365 92.0882 80.1365C93.6675 80.1365 94.915 80.6588 95.8276 81.7004C96.7401 82.7421 97.1764 84.3398 97.1365 86.4937H90.1002C90.1217 87.3264 90.346 87.9747 90.7793 88.4387C91.2125 88.9026 91.7533 89.1331 92.3985 89.1331C92.8379 89.1331 93.2066 89.0132 93.5077 88.7736C93.8089 88.5339 94.0332 88.1468 94.1868 87.6152L94.1899 87.6121ZM94.3496 84.773C94.3312 83.9588 94.1192 83.3412 93.7197 82.9172C93.3203 82.4932 92.8348 82.2812 92.2603 82.2812C91.6457 82.2812 91.1418 82.5055 90.7393 82.951C90.3368 83.3965 90.1432 84.0049 90.1494 84.77H94.3466L94.3496 84.773Z" fill="#231F20"/>
<path d="M101.119 83.6147L98.5683 83.1538C98.854 82.1275 99.3487 81.3686 100.046 80.8739C100.747 80.3792 101.785 80.1334 103.165 80.1334C104.419 80.1334 105.349 80.2809 105.964 80.5789C106.579 80.8739 107.009 81.2519 107.258 81.7097C107.506 82.1675 107.632 83.0032 107.632 84.2231L107.602 87.5015C107.602 88.4356 107.648 89.1239 107.737 89.5663C107.826 90.0088 107.995 90.485 108.241 90.992H105.463C105.389 90.8046 105.3 90.528 105.193 90.1624C105.147 89.9965 105.113 89.8859 105.091 89.8336C104.612 90.3007 104.099 90.6509 103.552 90.8845C103.005 91.118 102.421 91.2347 101.804 91.2347C100.71 91.2347 99.8495 90.9398 99.2196 90.3437C98.5898 89.7476 98.2764 89.001 98.2764 88.0945C98.2764 87.4954 98.4208 86.9607 98.7065 86.4906C98.9923 86.0205 99.3948 85.661 99.911 85.4122C100.427 85.1633 101.171 84.9451 102.145 84.7577C103.457 84.5119 104.366 84.2814 104.873 84.0694V83.7898C104.873 83.249 104.741 82.865 104.474 82.6345C104.206 82.4041 103.706 82.2904 102.965 82.2904C102.464 82.2904 102.074 82.3887 101.794 82.5854C101.515 82.782 101.288 83.1261 101.115 83.6208L101.119 83.6147ZM104.876 85.8946C104.517 86.0144 103.945 86.1588 103.168 86.3247C102.388 86.4906 101.877 86.6535 101.638 86.8133C101.272 87.0744 101.088 87.4032 101.088 87.8026C101.088 88.2021 101.235 88.537 101.527 88.8227C101.819 89.1085 102.194 89.2529 102.646 89.2529C103.153 89.2529 103.635 89.087 104.096 88.7521C104.437 88.5001 104.658 88.1898 104.766 87.8211C104.839 87.5814 104.876 87.1236 104.876 86.4507V85.8915V85.8946Z" fill="#231F20"/>
<path d="M112.3 90.9921L108.023 80.3762H110.972L112.973 85.7932L113.553 87.603C113.707 87.1421 113.802 86.841 113.842 86.6935C113.934 86.3924 114.036 86.0943 114.143 85.7932L116.162 80.3762H119.05L114.832 90.9921H112.303H112.3Z" fill="#231F20"/>
<path d="M125.481 87.6121L128.28 88.0822C127.921 89.1085 127.352 89.8889 126.575 90.4266C125.798 90.9643 124.827 91.2317 123.662 91.2317C121.816 91.2317 120.451 90.6294 119.563 89.4219C118.863 88.4571 118.512 87.2373 118.512 85.7624C118.512 84.0018 118.973 82.6253 119.892 81.6298C120.811 80.6342 121.975 80.1365 123.379 80.1365C124.959 80.1365 126.206 80.6588 127.119 81.7004C128.031 82.7421 128.468 84.3398 128.428 86.4937H121.391C121.41 87.3264 121.637 87.9747 122.071 88.4387C122.504 88.9026 123.045 89.1331 123.69 89.1331C124.129 89.1331 124.498 89.0132 124.799 88.7736C125.1 88.5339 125.324 88.1468 125.478 87.6152L125.481 87.6121ZM125.641 84.773C125.619 83.9588 125.41 83.3412 125.011 82.9172C124.612 82.4932 124.126 82.2812 123.552 82.2812C122.937 82.2812 122.433 82.5055 122.034 82.951C121.634 83.3965 121.438 84.0049 121.444 84.77H125.641V84.773Z" fill="#231F20"/>
<path d="M48.5831 49.22H6.61137C3.3091 49.22 0.63208 51.897 0.63208 55.1993V55.8814C0.63208 59.1836 3.3091 61.8607 6.61137 61.8607H48.5831C51.8854 61.8607 54.5624 59.1836 54.5624 55.8814V55.1993C54.5624 51.897 51.8854 49.22 48.5831 49.22Z" fill="#ADAA96"/>
<path d="M73.2071 49.22H72.5249C69.2227 49.22 66.5457 51.897 66.5457 55.1993V55.8814C66.5457 59.1836 69.2227 61.8607 72.5249 61.8607H73.2071C76.5093 61.8607 79.1863 59.1836 79.1863 55.8814V55.1993C79.1863 51.897 76.5093 49.22 73.2071 49.22Z" fill="#ADAA96"/>
<path d="M97.8279 49.22H97.1458C93.8435 49.22 91.1665 51.897 91.1665 55.1993V55.8814C91.1665 59.1836 93.8435 61.8607 97.1458 61.8607H97.8279C101.13 61.8607 103.807 59.1836 103.807 55.8814V55.1993C103.807 51.897 101.13 49.22 97.8279 49.22Z" fill="#ADAA96"/>
<path d="M122.452 49.22H121.77C118.467 49.22 115.79 51.897 115.79 55.1993V55.8814C115.79 59.1836 118.467 61.8607 121.77 61.8607H122.452C125.754 61.8607 128.431 59.1836 128.431 55.8814V55.1993C128.431 51.897 125.754 49.22 122.452 49.22Z" fill="#ADAA96"/>
<path d="M97.8279 25.0632H97.1458C93.8435 25.0632 91.1665 27.7402 91.1665 31.0425V31.7246C91.1665 35.0268 93.8435 37.7039 97.1458 37.7039H97.8279C101.13 37.7039 103.807 35.0268 103.807 31.7246V31.0425C103.807 27.7402 101.13 25.0632 97.8279 25.0632Z" fill="#ADAA96"/>
<path d="M122.452 25.0632H121.77C118.467 25.0632 115.79 27.7402 115.79 31.0425V31.7246C115.79 35.0268 118.467 37.7039 121.77 37.7039H122.452C125.754 37.7039 128.431 35.0268 128.431 31.7246V31.0425C128.431 27.7402 125.754 25.0632 122.452 25.0632Z" fill="#ADAA96"/>
<path d="M122.452 0.906372H121.77C118.467 0.906372 115.79 3.58339 115.79 6.88566V7.56778C115.79 10.87 118.467 13.5471 121.77 13.5471H122.452C125.754 13.5471 128.431 10.87 128.431 7.56778V6.88566C128.431 3.58339 125.754 0.906372 122.452 0.906372Z" fill="#ADAA96"/>
<path d="M73.2071 25.0632H72.5249C69.2227 25.0632 66.5457 27.7402 66.5457 31.0425V31.7246C66.5457 35.0268 69.2227 37.7039 72.5249 37.7039H73.2071C76.5093 37.7039 79.1863 35.0268 79.1863 31.7246V31.0425C79.1863 27.7402 76.5093 25.0632 73.2071 25.0632Z" fill="#ADAA96"/>
<path d="M73.2071 0.906372H72.5249C69.2227 0.906372 66.5457 3.58339 66.5457 6.88566V7.56778C66.5457 10.87 69.2227 13.5471 72.5249 13.5471H73.2071C76.5093 13.5471 79.1863 10.87 79.1863 7.56778V6.88566C79.1863 3.58339 76.5093 0.906372 73.2071 0.906372Z" fill="#ADAA96"/>
</svg>
