<svg width="24" height="24" viewBox="0 0 24 24" fill="none" xmlns="http://www.w3.org/2000/svg">
<path d="M12 21C10.7613 21 9.59467 20.7633 8.5 20.29C7.40533 19.8167 6.452 19.1733 5.64 18.36C4.82667 17.5487 4.18333 16.5953 3.71 15.5C3.23667 14.4053 3 13.2387 3 12C3 10.758 3.23667 9.59033 3.71 8.497C4.184 7.40367 4.82733 6.451 5.64 5.639C6.45133 4.827 7.40467 4.18433 8.5 3.711C9.59467 3.237 10.7613 3 12 3C13.242 3 14.4097 3.23667 15.503 3.71C16.5963 4.184 17.549 4.82733 18.361 5.64C19.173 6.452 19.8157 7.40433 20.289 8.497C20.763 9.59033 21 10.758 21 12C21 13.2387 20.7633 14.4053 20.29 15.5C19.8167 16.5947 19.1733 17.548 18.36 18.36C17.548 19.1727 16.5957 19.816 15.503 20.29C14.4097 20.7633 13.242 21 12 21ZM12 20.008C12.5867 19.254 13.0707 18.5137 13.452 17.787C13.8327 17.0603 14.1423 16.247 14.381 15.347H9.619C9.883 16.2977 10.199 17.1363 10.567 17.863C10.935 18.5897 11.4127 19.3047 12 20.008ZM10.727 19.858C10.2603 19.308 9.83433 18.628 9.449 17.818C9.06367 17.0087 8.777 16.1847 8.589 15.346H4.753C5.32633 16.59 6.13867 17.61 7.19 18.406C8.242 19.202 9.42067 19.686 10.726 19.858H10.727ZM13.273 19.858C14.5783 19.686 15.757 19.202 16.809 18.406C17.861 17.61 18.6733 16.59 19.246 15.346H15.412C15.1587 16.1973 14.8397 17.028 14.455 17.838C14.0697 18.6473 13.6757 19.3207 13.273 19.858ZM4.346 14.346H8.381C8.305 13.936 8.25167 13.5363 8.221 13.147C8.189 12.7577 8.173 12.3753 8.173 12C8.173 11.6247 8.18867 11.2423 8.22 10.853C8.25133 10.4637 8.30467 10.0637 8.38 9.653H4.347C4.23833 9.99967 4.15333 10.3773 4.092 10.786C4.03067 11.1947 4 11.5993 4 12C4 12.4013 4.03033 12.806 4.091 13.214C4.15233 13.6227 4.23733 14 4.346 14.346ZM9.381 14.346H14.619C14.695 13.936 14.7483 13.5427 14.779 13.166C14.811 12.79 14.827 12.4013 14.827 12C14.827 11.5987 14.8113 11.21 14.78 10.834C14.7487 10.4573 14.6953 10.064 14.62 9.654H9.38C9.30467 10.064 9.25133 10.4573 9.22 10.834C9.18867 11.21 9.173 11.5987 9.173 12C9.173 12.4013 9.18867 12.79 9.22 13.166C9.25133 13.5427 9.30567 13.936 9.381 14.346ZM15.619 14.346H19.654C19.7627 13.9993 19.8477 13.622 19.909 13.214C19.9703 12.806 20.0007 12.4013 20 12C20 11.5987 19.9697 11.194 19.909 10.786C19.8477 10.3773 19.7627 10 19.654 9.654H15.619C15.695 10.064 15.7483 10.4637 15.779 10.853C15.811 11.2423 15.827 11.6247 15.827 12C15.827 12.3753 15.8113 12.7577 15.78 13.147C15.7487 13.5363 15.6953 13.9363 15.62 14.347L15.619 14.346ZM15.412 8.654H19.246C18.66 7.38467 17.8573 6.36467 16.838 5.594C15.818 4.82333 14.6297 4.33333 13.273 4.124C13.7397 4.73733 14.1593 5.43933 14.532 6.23C14.904 7.02 15.1973 7.828 15.412 8.654ZM9.619 8.654H14.381C14.117 7.71533 13.7913 6.86667 13.404 6.108C13.0173 5.34867 12.5493 4.64333 12 3.992C11.4513 4.64333 10.9833 5.34867 10.596 6.108C10.2093 6.86667 9.88367 7.71533 9.619 8.654ZM4.754 8.654H8.588C8.80267 7.828 9.096 7.02 9.468 6.23C9.84067 5.43933 10.2603 4.737 10.727 4.123C9.35767 4.333 8.16633 4.82633 7.153 5.603C6.13967 6.38033 5.33967 7.397 4.753 8.653L4.754 8.654Z" fill="white"/>
</svg>
